<?xml version="1.0" encoding="UTF-8" standalone="no"?>
<svg fill="currentColor"
   xmlns:osb="http://www.openswatchbook.org/uri/2009/osb"
   xmlns:dc="http://purl.org/dc/elements/1.1/"
   xmlns:cc="http://creativecommons.org/ns#"
   xmlns:rdf="http://www.w3.org/1999/02/22-rdf-syntax-ns#"
   xmlns:svg="http://www.w3.org/2000/svg"
   xmlns="http://www.w3.org/2000/svg"
   xmlns:sodipodi="http://sodipodi.sourceforge.net/DTD/sodipodi-0.dtd"
   xmlns:inkscape="http://www.inkscape.org/namespaces/inkscape"
   inkscape:version="1.0 (4035a4fb49, 2020-05-01)"
   sodipodi:docname="East-Bay-Pups.svg"
   viewBox="0 0 805.11963 1000.434"
   height="1000.434"
   width="805.11963"
   id="svg2"
   version="1.1">
  <metadata
     id="metadata8">
    <rdf:RDF>
      <cc:Work
         rdf:about="">
        <dc:format>image/svg+xml</dc:format>
        <dc:type
           rdf:resource="http://purl.org/dc/dcmitype/StillImage" />
        <dc:title></dc:title>
      </cc:Work>
    </rdf:RDF>
  </metadata>
  <defs
     id="defs6">
    <linearGradient
       osb:paint="solid">
      <stop
         id="stop848"
         offset="0"
         style="stop-color:#000000;stop-opacity:1;" />
    </linearGradient>
  </defs>
  <sodipodi:namedview
     inkscape:current-layer="g10"
     inkscape:window-maximized="0"
     inkscape:window-y="0"
     inkscape:window-x="0"
     inkscape:cy="507.17912"
     inkscape:cx="409"
     inkscape:zoom="0.42159008"
     showgrid="false"
     id="namedview4"
     inkscape:window-height="732"
     inkscape:window-width="1366"
     inkscape:pageshadow="2"
     inkscape:pageopacity="0"
     guidetolerance="10"
     gridtolerance="10"
     objecttolerance="10"
     borderopacity="1"
     bordercolor="#666666"
     pagecolor="#ffffff" />
  <g
     transform="translate(-131,-178.32088)"
     id="g10">
    <path
       id="path846"
       d="m 469,1178.337 c -24.90121,-1.735 -43.4151,-5.1619 -61.74014,-11.4281 -13.79796,-4.7181 -38.59349,-16.613 -49.25986,-23.6309 -18.72548,-12.3205 -46.13964,-36.9988 -56.40733,-50.778 -5.54714,-7.4443 -19.16462,-29.244 -20.55962,-32.9131 -0.45854,-1.206 4.40894,3.061 10.81662,9.4822 12.49862,12.5251 16.16406,14.6788 29.15033,17.1278 12.36616,2.3321 42.37971,-1.8477 58.83497,-8.1935 4.56538,-1.7606 8.51655,-2.9852 8.78039,-2.7214 0.71403,0.7141 -9.09568,9.0769 -17.4071,14.8396 -9.7538,6.7629 -23.13997,13.4959 -29.79084,14.9843 -2.97958,0.6668 -5.41348,1.4783 -5.40867,1.8032 0.0231,1.5596 29.0218,18.3725 42.769,24.7966 16.94238,7.9172 35.64479,13.3157 61.22225,17.6719 24.16452,4.1156 36.99056,4.9575 65,4.2667 46.66372,-1.151 65.85802,-5.093 94.5,-19.4078 10.83523,-5.4153 25.5,-14.4735 25.5,-15.7509 0,-0.1863 -2.42498,-1.7263 -5.38884,-3.422 -10.60577,-6.068 -27.14204,-23.8999 -34.6184,-37.3308 l -2.35623,-4.2328 6.64258,6.1791 c 8.57566,7.9774 16.24841,12.4115 29.03984,16.7822 19.217,6.5662 26.06233,5.9598 36.53804,-3.2368 15.63887,-13.7293 29.2748,-27.6996 39.74995,-40.7245 6.19263,-7.7 14.02525,-17.375 17.40581,-21.5 6.48019,-7.9072 12.98725,-17.4079 12.98725,-18.9623 0,-0.5078 -0.86821,-2.4116 -1.92937,-4.2305 -3.13036,-5.3658 -6.06069,-19.59791 -6.16533,-29.94387 l -0.0947,-9.36333 -1.88973,14.26652 c -2.42415,18.30108 -5.72448,34.48038 -7.23706,35.47838 -0.6511,0.4296 -2.36505,0.6734 -3.80879,0.5419 -1.44374,-0.1316 -3.34507,0.3584 -4.22517,1.0888 -1.30464,1.0828 -3.5902,1.1153 -12.37502,0.1762 -17.84814,-1.9081 -19.20297,-2.1265 -19.86832,-3.2031 -0.63307,-1.0243 -0.0962,-4.3421 3.6974,-22.8487 1.76093,-8.59048 5.49455,-31.30081 10.88771,-66.22615 l 1.96517,-12.72615 -2.55173,-2.55173 c -1.91037,-1.91037 -2.41714,-3.23591 -2.01627,-5.27385 0.2945,-1.49716 0.82323,-4.82385 1.17496,-7.39264 0.78276,-5.71683 3.24345,-8.53615 8.1823,-9.37486 2.06467,-0.35061 5.1515,-0.99213 6.85961,-1.42559 3.68334,-0.9347 8.4628,-0.60677 21.77022,1.49371 5.43173,0.85736 10.02713,1.40758 10.21199,1.22272 0.18487,-0.18486 -0.56718,-4.75782 -1.6712,-10.16213 -1.10403,-5.4043 -1.87443,-9.9405 -1.712,-10.08044 0.16243,-0.13994 1.28322,-0.55785 2.49063,-0.92869 2.53743,-0.77933 2.91342,0.4957 4.09923,13.901 l 0.70547,7.9752 9.5,1.71672 c 25.04455,4.52574 27.05689,5.50838 26.95984,13.16467 -0.0491,3.87545 -2.45012,9.40433 -11.20984,25.81345 -3.7125,6.95442 -6.75,12.90984 -6.75,13.23425 0,0.32442 2.63679,0.31425 5.85952,-0.0226 5.66383,-0.59198 5.88091,-0.52724 6.49978,1.93855 0.35215,1.40305 0.19816,6.74805 -0.34219,11.87778 -1.62391,15.41639 -1.29152,26.91208 0.85902,29.70881 2.48768,3.23518 3.98074,2.43901 6.4141,-3.4203 1.74378,-4.19888 2.09391,-7.40237 2.27731,-20.83604 0.15878,-11.63089 0.55908,-16.08591 1.49748,-16.66588 0.70442,-0.43535 4.28582,-1.09334 7.95867,-1.46219 l 6.6779,-0.67063 0.11475,-14.95324 c 0.0631,-8.22428 0.37816,-15.37944 0.7001,-15.90036 1.15977,-1.87654 22.71525,-6.81573 45.48283,-10.42185 13.12478,-2.07882 15.80977,-2.25146 17.52608,-1.12689 1.72346,1.12926 10.47465,12.85664 10.47465,14.03697 0,0.21936 1.29935,3.24274 2.88744,6.71861 1.58809,3.47587 3.19341,7.33227 3.56739,8.56977 0.37397,1.2375 1.05447,2.25 1.51222,2.25 0.45774,0 3.09888,-2.48004 5.86919,-5.5112 7.51496,-8.22257 10.92353,-10.76035 15.51474,-11.55122 2.28196,-0.39308 5.61435,-1.04666 7.4053,-1.45239 l 3.25628,-0.7377 3.99017,8.87625 c 2.19459,4.88194 4.72145,10.22626 5.61524,11.87626 2.28567,4.21952 3.28758,8.0348 2.46113,9.37201 -0.73633,1.19142 -7.39592,3.11835 -17.5791,5.08647 -3.3,0.63779 -6.55491,1.34102 -7.23314,1.56272 -2.27059,0.74222 -0.15309,3.3221 7.3809,8.99264 11.96346,9.00443 38.82761,36.62592 39.37608,40.48616 0.67979,4.7845 -2.23276,8.4453 -9.5502,12.0038 -5.67398,2.7593 -26.63839,7.9432 -34.97364,8.6479 -9.88303,0.8357 -36.17838,-3.0376 -39.0979,-5.759 -2.03329,-1.8953 -3.59997,-7.3728 -4.88519,-17.0798 -0.7466,-5.63884 -0.21324,-6.05252 10.59953,-8.22121 16.9215,-3.39389 16.30659,-3.45438 21.91709,2.15612 3.95961,3.95962 5.85803,5.10254 9.24691,5.56709 2.34541,0.3214 4.79483,0.2566 5.44316,-0.1441 1.3645,-0.84329 -5.99551,-6.99728 -18.24981,-15.25937 -10.27715,-6.92906 -10.99144,-7.37279 -16.97379,-10.54439 -6.04558,-3.20512 -11.14349,-6.99561 -11.83614,-8.80063 -0.28044,-0.73081 0.59669,-2.95721 1.94918,-4.94757 2.78436,-4.09756 2.53503,-4.22937 -3.87134,-2.0465 -3.77502,1.28628 -4.73342,2.11349 -5.26786,4.54675 -0.3593,1.63592 -0.28699,12.74086 0.16071,24.67765 1.23409,32.90406 1.30417,31.51686 -1.63455,32.35256 -1.375,0.391 -4.525,1.3049 -7,2.0308 -4.90694,1.4393 -29.29366,1.8596 -30.62536,0.5279 -0.43562,-0.4356 -1.03562,-2.7965 -1.33334,-5.2464 l -0.5413,-4.4543 -3.08269,2.8907 c -4.29218,4.0248 -9.97603,6.7342 -16.7569,7.9877 -3.17688,0.5873 -6.22001,1.3421 -6.76252,1.6774 -0.54252,0.3353 -5.75214,0.5875 -11.57695,0.5605 -13.52301,-0.063 -23.81251,-3.1635 -30.74362,-9.2645 -3.08275,-2.7135 -4.70984,-3.5922 -4.98731,-2.6933 -0.22651,0.7338 -1.40454,5.8342 -2.61785,11.3342 -3.57902,16.2238 -10.19747,31.2251 -19.85364,45 -9.45437,13.487 -28.66421,33.9989 -42.11852,44.9734 -9.78882,7.9845 -30.92475,22.8755 -39.71225,27.9785 -10.14254,5.89 -29.12742,14.4317 -42.08469,18.9348 C 545.9581,1173.9406 500.44472,1180.528 469,1178.337 Z m 318.37066,-161.7299 c 6.59755,-3.2279 9.45176,-7.2047 13.5043,-18.81562 4.90652,-14.0577 6.17788,-30.2773 3.4445,-43.94416 L 803.75,951 h -9.26815 -9.26815 l -0.42317,15.25 c -0.38107,13.73298 -0.6767,15.79712 -2.9718,20.75 -3.20057,6.90691 -6.55184,10.02375 -11.47044,10.66804 -4.61524,0.60455 -10.0139,-2.55471 -12.31277,-7.20537 -2.03238,-4.11153 -1.6259,-27.85964 0.63694,-37.21267 0.51767,-2.1397 0.25647,-2.25 -5.32798,-2.25 -5.79823,0 -5.90372,0.0515 -8.35841,4.08257 -2.57871,4.23471 -6.3309,6.80639 -11.48607,7.87233 -2.94669,0.60929 -3.00559,0.74404 -3.3148,7.58271 -0.35261,7.79867 1.16792,20.17153 3.49781,28.46239 2.69082,9.5752 12.82467,17.6081 24.81699,19.6717 1.65,0.284 3.16292,0.6744 3.36205,0.8677 0.19913,0.1932 4.81132,0.2039 10.24931,0.024 8.22697,-0.2727 10.78935,-0.7691 15.2593,-2.956 z m 49.1194,-26.8571 c -0.47803,-18.72319 -0.35775,-28.11218 0.38439,-30.00534 1.14133,-2.91151 2.91985,-3.89782 14.99024,-8.31316 4.05058,-1.4817 8.93299,-4.07099 10.84981,-5.75398 3.00456,-2.63804 3.41103,-3.51655 2.94779,-6.37115 -0.81101,-4.99768 -9.20512,-22.04247 -13.34099,-27.08976 l -3.64925,-4.45343 -5.58603,0.64071 c -6.69404,0.76779 -34.24847,6.23718 -38.83602,7.70872 L 801,917.1551 V 931.57755 946 h 3.33102 c 5.23078,0 5.86487,2.07817 7.62801,25 0.52883,6.875 1.02389,19.44167 1.10014,27.92594 0.0762,8.48426 0.36727,16.02176 0.64672,16.74996 0.38082,0.9924 3.38513,1.3241 11.994,1.3241 h 11.48591 z m -17.45488,-40.68426 c -1.59152,-2.97378 -1.33915,-22.56858 0.30828,-23.93582 1.64348,-1.36397 15.30167,-4.89277 22.21942,-5.74071 6.39297,-0.78363 7.52757,0.25763 10.32839,9.47872 2.39667,7.89051 2.67622,12.42051 0.85873,13.9151 -0.6875,0.56536 -3.95,1.79107 -7.25,2.7238 -3.3,0.93273 -8.66182,2.55026 -11.91516,3.59452 -7.8416,2.517 -13.19055,2.50391 -14.54966,-0.0356 z M 840.40362,938.5 c -0.34589,-1.65 -1.36571,-5.25 -2.26626,-8 -1.81316,-5.53684 -1.77158,-5.52455 -11.38736,-3.36653 l -4.75,1.06601 0.011,5.65026 c 0.006,3.10764 0.27642,7.25453 0.60083,9.21531 l 0.58982,3.56506 8.91543,-2.56506 8.91543,-2.56505 -0.6289,-3 z m 77.38684,75.0544 c 4.82166,-1.5441 9.61193,-3.8356 11.44876,-5.4768 3.01393,-2.693 3.08654,-2.9307 1.5886,-5.1998 C 926.50649,996.33178 906.8713,976.39785 897.45772,969 887.84276,961.4439 883,956.42803 883,954.02548 883,951.64878 888.47607,944 890.17765,944 c 0.55527,0 1.24494,0.9 1.5326,2 0.63788,2.43926 0.97401,2.45031 10.03975,0.32997 3.9875,-0.93261 7.25,-2.22813 7.25,-2.87892 0,-0.6508 -2.025,-5.45808 -4.5,-10.68286 -2.475,-5.22477 -4.5,-10.03921 -4.5,-10.69875 0,-1.89907 -7.08481,3.72137 -11.75467,9.32507 -2.34006,2.80802 -5.5057,6.45549 -7.03475,8.10549 C 872.01949,949.41811 862,961.35889 862,962.39431 c 0,0.66427 3.4875,3.17424 7.75,5.57771 6.6336,3.74045 15.0806,9.10709 23.65378,15.02798 1.19457,0.825 5.44344,4.12744 9.44194,7.33876 6.14919,4.9386 7.22253,6.24903 6.96214,8.5 -0.43499,3.76024 -5.92926,5.51314 -17.53882,5.59564 l -9.23096,0.066 -4.66894,-4.87006 -4.66893,-4.87007 -5.58664,0.6566 c -3.07265,0.36113 -5.95942,1.02938 -6.41504,1.485 -1.29809,1.29809 0.3911,12.99463 2.18704,15.14383 1.06339,1.2725 3.49169,2.1532 7.11443,2.58 3.025,0.3565 7.75,1.0063 10.5,1.4441 2.75,0.4378 10.175,0.6484 16.5,0.468 9.05561,-0.2583 13.26218,-0.8924 19.79046,-2.983 z M 709.53233,987.5 c 1.97644,-13.2 3.83347,-24.99047 4.12672,-26.20104 0.50311,-2.07686 1.05395,-2.19729 9.76367,-2.13465 9.21266,0.0663 13.70897,-1.13521 16.27306,-4.34837 1.53401,-1.92233 13.88527,-24.75628 19.48235,-36.01727 5.41828,-10.90127 5.79871,-13.14319 2.57187,-15.15616 -3.14503,-1.96194 -54.05134,-10.66713 -62.14584,-10.6272 -4.6041,0.0227 -5.30364,0.87823 -6.34179,7.75579 -0.92119,6.10274 -0.88,6.3041 1.5344,7.5 1.36455,0.6759 2.46956,1.57278 2.45557,1.99307 -0.0963,2.89443 -1.7838,14.9699 -4.36498,31.23583 -6.27129,39.52 -7.08333,44.32772 -9.59019,56.77883 -1.41506,7.02837 -2.36855,12.98317 -2.11887,13.23277 0.24969,0.2497 3.57421,0.7416 7.38784,1.0931 3.81362,0.3516 8.95886,0.9444 11.43386,1.3174 3.55159,0.5353 4.65162,0.3515 5.2194,-0.8719 0.39567,-0.8526 2.33649,-12.3502 4.31293,-25.5502 z m 2.74045,-44.70912 c -5.37517,-1.39285 -5.77616,-2.68846 -4.57981,-14.79732 0.65026,-6.58153 1.80583,-12.34883 2.93928,-14.66948 L 712.5,909.5 l 8,-0.0579 c 8.40255,-0.0608 24.45674,1.79511 26.51115,3.0648 4.33766,2.68082 -7.48978,26.10366 -15.19247,30.08688 -3.11422,1.61042 -13.68053,1.71698 -19.5459,0.19711 z m 13.46529,-6.65047 C 728.54737,932.34062 734,921.38984 734,919.54757 c 0,-1.73962 -1.71649,-2.22907 -11.83941,-3.37592 -7.10578,-0.80503 -7.36742,-0.75785 -8.21897,1.48191 -1.39572,3.671 -3.41001,19.21139 -2.59567,20.02573 0.85694,0.85694 9.63033,2.08077 11.25194,1.56958 0.60383,-0.19036 2.01692,-1.58917 3.14018,-3.10846 z M 165.71204,1097.25 c -0.2233,-0.4125 -2.31836,-7.05 -4.65569,-14.75 -2.33733,-7.7 -5.06892,-16.7 -6.0702,-20 C 147.77273,1038.7262 131,964.0495 131,955.70725 c 0,-2.45336 3.40458,-5.636 4.67259,-4.36799 0.27572,0.27571 2.72215,-0.15822 5.43652,-0.9643 2.71436,-0.80608 5.39803,-1.17956 5.96371,-0.82996 1.303,0.8053 39.50341,0.81409 51.31563,0.0118 4.88865,-0.33203 9.71611,-0.34101 10.7277,-0.0199 2.00782,0.63726 3.34254,4.74326 4.37641,13.46314 0.35866,3.025 0.83429,6.175 1.05695,7 0.22266,0.825 0.0254,2.10394 -0.43827,2.84208 -1.67299,2.66315 -27.80136,8.14543 -38.86124,8.1539 -2.8875,0.002 -5.24963,0.34152 -5.24919,0.75402 0.002,1.96666 3.90702,10.71928 4.93519,11.062 0.6411,0.2137 2.38026,-0.0796 3.86482,-0.65185 C 191.2084,987.37767 201.281,984 203.13533,984 c 1.22247,0 3.70082,-0.5345 5.50743,-1.18778 2.78009,-1.0053 3.56886,-0.93069 5.13384,0.48561 2.03341,1.84021 5.76132,12.4835 4.74252,13.54004 -0.35117,0.36417 -7.66167,4.28053 -16.24555,8.70293 -8.58389,4.4224 -16.07694,8.7857 -16.65122,9.6961 -0.76683,1.2157 -0.58979,2.6082 0.66658,5.2428 l 1.71073,3.5874 7.25017,-7.0906 c 10.50288,-10.2717 21.31439,-18.24959 23.70384,-17.4912 1.09825,0.34857 3.68403,-0.28014 5.98946,-1.45629 3.22968,-1.64766 4.06204,-2.62623 4.08225,-4.79933 0.028,-3.0095 4.40123,-25.98962 5.074,-26.6624 0.88022,-0.88021 10.00036,-1.82489 26.82154,-2.77822 l 17.42093,-0.98732 1.81339,2.34913 c 0.99737,1.29202 3.05795,5.83535 4.57908,10.09628 1.52112,4.26092 3.02974,7.63592 3.35248,7.5 0.32274,-0.13593 2.74419,-2.69104 5.381,-5.67802 8.16129,-9.24514 15.67239,-15.20071 18.53187,-14.69398 1.37481,0.24363 3.62481,-0.16501 5,-0.90808 2.75538,-1.48886 13.17895,-3.74862 25.46132,-5.51986 4.37854,-0.63143 19.77249,-1.21536 34.20877,-1.29763 22.16329,-0.1263 26.48262,0.0844 27.7569,1.35403 0.89318,0.88991 2.15815,5.87227 3.0993,12.20724 1.92631,12.96628 1.37139,14.78915 -4.50213,14.78915 -2.14819,0 -4.18391,0.45 -4.52383,1 -0.3491,0.56486 -5.22839,1 -11.21304,1 h -10.595 l 0.67297,13.25 c 0.37013,7.2875 0.95794,20.5367 1.30624,29.4427 l 0.63328,16.1928 -2.40223,0.4966 c -1.32122,0.2731 -3.75222,0.8346 -5.40222,1.2478 -1.65,0.4131 -8.625,0.8447 -15.5,0.9591 -9.52899,0.1584 -14.99565,0.8219 -23,2.7914 -9.37299,2.3063 -12.50586,2.5855 -29.18795,2.6016 -13.10832,0.013 -20.64139,0.471 -25.23066,1.5354 -3.5985,0.8345 -7.78892,1.4925 -9.31206,1.4621 -1.52313,-0.03 -4.79433,0.3702 -7.26933,0.8901 -11.69796,2.4574 -17.21774,3.1193 -26.05887,3.1246 -11.33348,0.01 -12.73001,-0.7321 -13.14421,-6.9554 l -0.29692,-4.4611 -14.16625,16.4611 c -7.79143,9.0537 -17.76124,20.0082 -22.15512,24.3434 -6.80176,6.711 -8.35747,7.7897 -10.46933,7.2597 -1.60981,-0.4041 -2.9146,-0.1 -3.71732,0.8678 -1.28409,1.5472 -5.56966,2.0524 -6.27994,0.7403 z m 19.91685,-14.5 c 3.8318,-3.9875 13.7328,-15.125 22.00224,-24.75 13.45698,-15.6629 18.85876,-21.6066 31.04281,-34.1569 l 3.5502,-3.657 -3.02418,-4.343 c -1.6633,-2.3887 -5.2419,-6.5054 -7.95245,-9.1483 l -4.92827,-4.8052 -5.146,4.0677 c -6.13042,4.8458 -22.31591,19.8737 -23.52537,21.8428 -1.52761,2.487 -7.43279,4.3854 -9.76277,3.1384 -2.55696,-1.3684 -8.15316,-13.0449 -7.71006,-16.087 0.39431,-2.7071 5.04959,-5.7192 21.57496,-13.9597 6.7375,-3.35977 12.25,-6.2993 12.25,-6.53234 0,-1.34602 -3.02853,-7.35645 -3.69897,-7.34099 -0.44057,0.0102 -6.42603,2.06924 -13.30103,4.57575 -21.76169,7.93395 -24.13496,8.67078 -25.0332,7.77258 -1.44201,-1.44201 -6.95655,-17.67068 -6.96186,-20.48797 -0.006,-3.03839 0.8468,-3.2258 22.04101,-4.84512 6.84973,-0.52334 14.86467,-1.50842 17.81099,-2.18906 l 5.35694,-1.23752 -0.66817,-6.05356 c -0.36749,-3.32947 -0.9135,-7.06247 -1.21334,-8.29558 l -0.54518,-2.24201 -25.14359,0.41587 c -13.82898,0.22873 -27.987,0.0931 -31.46227,-0.30138 -3.47527,-0.39449 -6.53172,-0.37254 -6.79211,0.0488 -0.47948,0.77581 4.06391,24.64801 7.48359,39.32075 3.14098,13.47698 9.48766,39.96568 12.57896,52.49998 3.30081,13.3838 12.73433,44 13.55735,44 0.35908,0 3.78798,-3.2625 7.61977,-7.25 z m 71.7015,-31.2894 c 8.41597,-0.9281 8.66359,-1.3922 8.68492,-16.2757 0.008,-5.8767 0.41301,-11.313 0.89908,-12.0806 1.62836,-2.5717 3.62142,-0.3913 5.51029,6.0282 1.03047,3.5021 2.9601,9.3416 4.28806,12.9765 l 2.41446,6.609 4.60422,-0.8601 c 2.53231,-0.4731 4.82579,-1.0818 5.09661,-1.3526 0.27083,-0.2708 -0.0297,-2.235 -0.66781,-4.3649 -1.43974,-4.8054 -1.51104,-14.6164 -0.12504,-17.2061 0.56935,-1.0639 1.6678,-1.9343 2.44099,-1.9343 2.40161,0 2.5842,-1.5992 0.93148,-8.1588 -1.03843,-4.1216 -2.61453,-7.408 -4.50266,-9.3888 -3.06764,-3.2183 -3.65009,-6.28645 -1.76606,-9.30325 0.90995,-1.45706 0.40547,-4.13254 -2.50931,-13.30803 -5.0395,-15.86391 -4.55468,-15.38862 -15.2906,-14.98964 -4.86146,0.18066 -11.53902,0.40049 -14.83902,0.4885 l -6,0.16002 -2.22059,11 c -1.22133,6.05 -2.52589,15.62461 -2.89903,21.2769 -0.62387,9.4505 -0.51566,10.4557 1.34563,12.5 1.98886,2.1844 4.27399,6.0231 4.27399,7.1797 0,0.3234 -1.8786,2.6261 -4.17466,5.1171 -4.07812,4.4242 -4.20461,4.7754 -5.46922,15.1876 -0.98945,8.1465 -1.01734,10.83 -0.11835,11.3857 1.27079,0.7853 9.20545,0.5143 20.09262,-0.6864 z m 0.78228,-40.3698 c -1.07581,-0.6813 -1.3489,-3.6258 -1.21621,-13.11356 0.20866,-14.91984 1.40797,-17.92749 7.16241,-17.96193 4.71469,-0.0282 5.71106,1.80578 8.00336,14.73156 2.02891,11.44063 2.06392,12.41163 0.53178,14.75003 -1.43646,2.1923 -2.35122,2.5012 -7.36706,2.4878 -3.14982,-0.01 -6.35125,-0.4107 -7.11428,-0.8939 z m 82.13733,31.8516 c 4.08207,-1.2095 6.75,-2.5423 6.75,-3.3721 0,-3.757 -15.05613,-20.0372 -32.26193,-34.8849 C 310.78,1001.2698 308,998.07884 308,996.9512 c 0,-1.05581 1.30718,-3.38263 2.90484,-5.17072 2.80044,-3.13425 3.03166,-3.20522 6.43417,-1.97486 2.95263,1.06769 4.112,1.03278 7.09516,-0.21367 1.96121,-0.81944 3.56583,-1.62731 3.56583,-1.79526 0,-0.65174 -5.157,-14.4805 -6.72748,-18.04007 -0.91158,-2.06614 -2.13331,-3.76007 -2.71497,-3.7643 -1.6455,-0.0119 -18.90479,18.23453 -23.99391,25.3663 -2.51,3.51745 -4.56364,7.26489 -4.56364,8.32765 0,2.43223 7.67698,9.07303 19.88775,17.20343 16.46134,10.9606 20.11225,13.9563 20.11225,16.5026 0,2.063 -0.59984,2.4012 -5.25,2.9597 -7.67925,0.9224 -15.25724,0.7858 -18.18609,-0.3277 -1.57019,-0.597 -3.42433,-2.7418 -4.77687,-5.5257 -1.43205,-2.9476 -2.69307,-4.3649 -3.58059,-4.0243 -0.75351,0.2891 -2.24436,0.5257 -3.31299,0.5257 -4.10902,0 -4.8351,10.3806 -1.05279,15.0516 3.21012,3.9643 34.0388,4.556 46.40933,0.8908 z m 34.60006,-4.9432 c 0.19253,-1.3556 -0.15061,-8.7725 -0.76254,-16.482 -1.72977,-21.79299 -2.27475,-39.87146 -1.24767,-41.38875 0.68217,-1.00776 4.07567,-1.43611 12.79429,-1.61498 6.52622,-0.13389 13.3905,-0.30419 15.25395,-0.37845 l 3.3881,-0.13502 -0.6868,-6.75 c -0.92419,-9.08317 -1.47956,-10.99388 -3.41094,-11.73502 -2.62253,-1.00636 -41.57835,-0.59226 -54.16788,0.57581 -6.53938,0.60673 -11.81961,1.57077 -12.25581,2.2376 -0.4215,0.64439 -0.65125,4.77161 -0.51056,9.17161 l 0.2558,8 h 12.28531 c 9.81603,0 12.48321,0.30149 13.26988,1.5 0.95344,1.45258 1.0838,35.7527 0.16997,44.7239 -0.39662,3.8937 -0.69589,4.2738 -3.82771,4.8613 -3.94812,0.7407 -3.88512,0.5703 -1.74377,4.7145 2.49864,4.8356 3.93761,5.4321 12.76512,5.2923 7.78648,-0.1233 8.09397,-0.2179 8.43126,-2.5928 z m -63.85638,-6.7492 c -0.003,-0.4125 -1.37459,-1.5287 -3.04691,-2.4804 -2.87377,-1.6355 -3.05347,-1.1032 -0.66863,1.9804 1.04927,1.3567 3.7258,1.7169 3.71554,0.5 z m 35.35264,-15.407 C 346.70585,1009.1566 347,999.70665 347,994.843 V 986 h -6.44543 c -5.96721,0 -6.54223,0.19558 -7.75,2.636 -1.45744,2.94489 -9.59628,6.74301 -13.92701,6.49927 -2.27876,-0.12826 -5.86682,2.31407 -4.77006,3.24689 0.21587,0.18361 3.7675,3.18774 7.8925,6.67584 7.93034,6.7058 22,20.8897 22,22.1786 0,0.4199 0.38085,0.7634 0.84632,0.7634 0.46548,0 1.14048,-5.4707 1.5,-12.157 z m 223.4431,27.9939 -2.34286,-5.1632 -9.96517,0.1197 c -7.20773,0.086 -10.58027,-0.2834 -12.1881,-1.3369 -2.54305,-1.6663 -7.87455,-1.943 -8.79329,-0.4565 -0.33992,0.55 -2.20954,1 -4.15472,1 -1.94518,0 -4.73113,0.633 -6.19099,1.4067 -3.20139,1.6967 -9.71635,3.0068 -25.65429,5.1589 -12.6704,1.7109 -54.94278,2.515 -57.25,1.089 -0.6875,-0.425 -1.2524,-2.6586 -1.25533,-4.9636 -0.003,-2.3051 -0.88858,-9.4231 -1.96812,-15.8179 -1.07953,-6.3949 -2.4416,-16.9699 -3.02681,-23.5 -0.58521,-6.53022 -1.80089,-17.9481 -2.70152,-25.3731 -0.90063,-7.425 -1.89866,-15.975 -2.21786,-19 l -0.58036,-5.5 -5.18864,-0.52198 c -2.85376,-0.28708 -5.49197,-0.8253 -5.8627,-1.19602 -1.07109,-1.07109 -3.37497,-12.87147 -3.41353,-17.48396 -0.0321,-3.83607 0.33494,-4.45529 4.21487,-7.11129 8.06816,-5.52304 29.27102,-14.95432 43.25,-19.2381 2.2,-0.67418 4.9,-1.55795 6,-1.96394 C 473.89671,902.73106 484.41177,901 488.6302,901 c 6.7711,0 13.7186,7.71943 26.8624,29.84709 l 3.77016,6.34708 -2.20829,9.65292 c -1.21456,5.3091 -2.67142,10.87387 -3.23747,12.36614 -1.05437,2.77964 -9.53559,11.86194 -13.567,14.52852 -1.2375,0.81855 -2.24182,1.99902 -2.23183,2.62326 0.0301,1.88231 12.05231,13.96885 12.94696,13.01627 0.45523,-0.4847 1.825,-3.35628 3.04394,-6.38128 2.75354,-6.83334 11.92404,-27.63883 13.64829,-30.9644 1.5392,-2.96868 7.91132,-4.55967 22.51904,-5.62253 5.32202,-0.38724 10.20872,-1.03305 10.85933,-1.43515 0.89702,-0.55439 0.91481,-1.98129 0.0736,-5.90373 -2.42739,-11.31855 -1.02816,-13.41631 10.78335,-16.16661 10.42443,-2.42733 25.17086,-2.75396 26.53724,-0.58779 0.78603,1.24612 1.23956,1.09882 2.82577,-0.91772 1.04224,-1.32499 2.94873,-2.40207 4.25179,-2.40207 1.29928,0 3.62912,-0.48628 5.17742,-1.08062 4.66861,-1.79211 21.29263,-3.18292 22.82672,-1.90974 1.4808,1.22896 2.94685,9.30303 4.53761,24.99036 0.58562,5.775 1.47846,14.55 1.98411,19.5 0.50565,4.95 1.35435,13.275 1.88602,18.5 0.53166,5.225 1.4753,14.225 2.09698,20 1.41452,13.1401 0.65936,20.4133 -2.33738,22.5123 -1.19836,0.8394 -6.45387,3.1405 -11.6789,5.1136 -5.22503,1.9731 -11.46871,4.4681 -13.87483,5.5445 -2.40613,1.0764 -6.49905,2.7945 -9.09539,3.8178 -2.59635,1.0234 -9.09633,3.9468 -14.44442,6.4965 -5.34809,2.5497 -10.25516,4.4563 -10.90461,4.2368 -0.64944,-0.2195 -2.62886,0.2034 -4.39869,0.9397 -4.68945,1.951 -4.92706,1.8298 -7.4927,-3.8243 z M 592,1037.8667 c 3.025,-1.4087 8.65,-3.8468 12.5,-5.418 3.85,-1.5712 7.9,-3.3849 9,-4.0305 1.1,-0.6456 7.5125,-3.2916 14.25,-5.8801 13.27949,-5.1017 12.24719,-4.0582 12.64994,-12.7881 0.0825,-1.7875 -0.40986,-7.075 -1.09405,-11.75 -0.68419,-4.675 -1.71808,-15.25 -2.29754,-23.5 -0.57946,-8.25 -2.24421,-23.9427 -3.69944,-34.87266 l -2.64588,-19.87267 -7.36671,0.66756 c -4.05169,0.36715 -8.02587,0.92049 -8.83151,1.22965 -1.63117,0.62594 -1.79759,2.62952 -1.52925,18.41137 0.17922,10.54028 0.17382,10.56588 -2.48175,11.77584 -3.53927,1.6126 -9.2095,0.46775 -10.95088,-2.21105 -0.76085,-1.17042 -1.6661,-4.37804 -2.01168,-7.12804 -1.18448,-9.42585 -1.35357,-11.00392 -1.42235,-13.27475 -0.0462,-1.52467 -0.97569,-2.62291 -2.8189,-3.33061 -3.6895,-1.41658 -14.66806,-0.18811 -17.27839,1.93341 -1.94888,1.58394 -1.99575,2.06676 -0.8903,9.17195 1.82053,11.70125 4.87666,26.05296 5.99142,28.1359 0.9391,1.75473 1.89731,1.84393 13.27454,1.23571 15.4314,-0.82496 18.78364,0.0868 21.92587,5.96358 2.04302,3.82098 2.22617,5.51421 2.21847,20.50996 -0.008,15.30625 -0.13956,16.45035 -2.07194,18.00005 -1.13495,0.9101 -9.5733,5.7048 -18.75189,10.6548 -10.11253,5.4537 -16.92241,9.7354 -17.28237,10.8663 -0.8833,2.7752 2.68979,9.5681 4.59263,8.7311 0.83708,-0.3682 3.99696,-1.822 7.02196,-3.2307 z m -85.20847,0.1854 c 9.47696,-1.0713 17.73845,-2.2616 18.35887,-2.6451 0.78633,-0.4859 0.96726,-4.4201 0.59727,-12.9874 l -0.53078,-12.2903 -3.79337,-3.3146 c -2.08635,-1.8231 -9.33515,-8.81329 -16.10844,-15.53379 C 496.41863,982.45381 493,978.39966 493,976.6765 c 0,-1.69612 2.04085,-4.19911 7.06347,-8.66295 3.8849,-3.4527 7.74036,-7.31071 8.56767,-8.57335 1.67815,-2.56118 5.34269,-16.56219 5.34989,-20.4402 0.007,-3.97153 -16.7923,-29.51978 -21.3938,-32.5348 -2.14966,-1.40851 -3.26778,-1.46703 -8.2861,-0.43364 -10.94153,2.25312 -41.64382,14.24271 -48.74584,19.03581 -2.47667,1.67148 -4.77742,3.48303 -5.11279,4.02567 -0.33537,0.54264 -0.0899,4.0689 0.54555,7.83613 1.09568,6.49594 1.31293,6.88103 4.20864,7.46017 1.67932,0.33586 4.29828,0.61066 5.8199,0.61066 3.2024,0 3.30106,0.27116 4.9119,13.5 0.60275,4.95 1.76542,14.47653 2.58371,21.17006 0.81829,6.69354 1.4878,14.25936 1.4878,16.81294 0,4.047 3.9769,33.0815 5.5839,40.767 l 0.57501,2.75 h 16.70089 c 9.98805,0 23.62674,-0.7829 33.93173,-1.9479 z m -32.6841,-13.0619 c -2.35285,-1.0141 -2.38388,-1.201 -1.86928,-11.2607 C 472.8418,1001.929 474.7718,996 478.00941,996 c 3.30652,0 18.77507,8.0864 23.6521,12.3645 5.07199,4.4491 7.33849,8.2976 7.33849,12.4608 0,2.4491 -0.48743,3.0222 -2.99746,3.5242 -6.02341,1.2047 -29.49276,1.6761 -31.89511,0.6407 z m 16.64257,-3.8451 c 2.3375,-0.08 4.25,-0.5226 4.25,-0.984 0,-1.5142 -6.16818,-8.0981 -8.86273,-9.4601 -1.4505,-0.7332 -3.6293,-1.9613 -4.84179,-2.7292 -2.9718,-1.882 -3.46279,-1.1064 -3.61212,5.706 -0.18474,8.4287 -1.02509,7.9484 13.06664,7.4673 z M 468.2003,958.75 c -0.41261,-1.2375 -0.59432,-5.89495 -0.40381,-10.34989 l 0.34638,-8.0999 8.09572,-3.78955 c 10.61513,-4.96887 12.29287,-3.90504 12.6431,8.01683 0.15253,5.19252 -1.7249,7.76845 -9.16824,12.57932 -6.93415,4.48175 -10.4017,4.97665 -11.51315,1.64319 z M 475,946.19301 c 0,-5.47877 -1.46693,-4.5365 -2.37938,1.52838 -0.52794,3.50908 -0.38077,4.1238 0.87214,3.64302 1.04026,-0.39919 1.50724,-2.0014 1.50724,-5.1714 z m 67.07431,84.05699 c 0.20541,-4.8375 4.59169,-21.074 6.24118,-23.1027 1.75867,-2.163 4.67104,2.2573 4.75273,7.2135 0.0375,2.2766 0.82503,7.0642 1.75,10.6392 l 1.68178,6.5 9.06227,0.285 c 8.76712,0.2758 9.1057,0.2039 10.39585,-2.2067 2.2422,-4.1896 0.43444,-20.0782 -6.096,-53.5783 -3.88913,-19.95064 -5.06787,-25.00913 -5.95551,-25.55772 -0.49008,-0.30289 -5.87127,-0.23557 -11.95818,0.14959 l -11.06712,0.70029 -2.82472,5.60392 C 536.503,959.97824 533.10253,967.675 530.5,974 c -2.60253,6.325 -6.0297,14.07467 -7.61594,17.22148 -1.58623,3.14682 -2.89103,6.29682 -2.89954,7 -0.009,0.70319 1.85032,2.88362 4.13075,4.84542 4.72098,4.0614 5.72141,7.6995 5.82512,21.1831 L 530,1032 h 6 c 5.01931,0 6.01215,-0.286 6.07431,-1.75 z m 1.15303,-40 c -1.91408,-1.67968 -1.94453,-2.1937 -0.75773,-12.79117 1.75134,-15.63842 3.07866,-17.34572 10.93362,-14.06371 3.91458,1.63562 4.24966,2.97179 4.15837,16.58205 -0.053,7.89494 -0.33412,9.38362 -2.00273,10.6036 -2.73922,2.00274 -9.89096,1.81091 -12.33153,-0.33077 z m 50.56702,25.1331 10.9262,-5.617 0.62733,-10.13304 c 0.83284,-13.4526 -0.47451,-22.458 -3.66038,-25.21379 -2.21124,-1.91273 -3.40098,-2.05219 -14.73581,-1.72734 -6.78169,0.19437 -12.46799,0.49103 -12.63622,0.65926 -0.16823,0.16822 0.76367,6.34553 2.07089,13.72734 1.30722,7.38181 2.97196,18.03397 3.69943,23.67147 0.72746,5.6375 1.6511,10.25 2.05252,10.25 0.40141,0 5.64663,-2.5276 11.65604,-5.6169 z M 254,945 c -2.22173,-9.33127 -2.49556,-12.61484 -2.4601,-29.5 0.0447,-21.27231 1.49935,-30.37847 8.12872,-50.88515 C 277.0552,810.83278 324.97081,749.31196 376,715.25219 c 10.60516,-7.07849 18.86656,-11.71897 19.58468,-11.00084 0.21498,0.21498 -0.74538,4.85887 -2.13413,10.31976 -1.38876,5.46089 -2.80366,14.12991 -3.14423,19.26449 l -0.61921,9.3356 -7.34356,3.63368 C 378.3046,748.80341 375,750.69742 375,751.0138 c 0,0.31638 2.1375,2.21068 4.75,4.20957 2.6125,1.99889 6.18257,5.12886 7.9335,6.95549 2.93252,3.05932 3.20304,3.91241 3.4314,10.82114 0.18094,5.47377 -0.20634,8.36461 -1.43349,10.70034 -1.85842,3.53725 -2.23567,11.39549 -0.68608,14.29093 0.55887,1.04427 0.64414,2.80912 0.19444,4.02477 -0.72532,1.96072 -1.31433,1.48961 -6.24284,-4.99323 -4.6035,-6.05533 -6.52085,-7.68568 -12.44444,-10.5817 -8.61761,-4.21312 -18.56484,-5.99686 -28.00249,-5.0214 l -7,0.7235 -8.18838,8.3606 c -9.21018,9.4039 -20.87099,23.7876 -29.81162,36.77285 -3.3,4.79288 -8.62735,12.42885 -11.83855,16.96883 -8.57793,12.12742 -14.92634,26.00581 -20.01467,43.75451 -6.62303,23.10191 -7.87708,30.43787 -8.54725,50 L 256.5,955.5 Z m 118.25116,-25.51646 c -11.50935,-2.50022 -20.47082,-9.10464 -24.83604,-18.30366 -4.26466,-8.98709 -2.66294,-25.73023 3.74811,-39.17988 3.76968,-7.90834 5.22665,-9.65622 20.93163,-25.11078 14.52967,-14.29801 17.31744,-17.54574 20.02228,-23.32584 2.93149,-6.26445 3.31819,-6.6707 5.76261,-6.05394 7.58441,1.91366 20.70858,3.45038 29.12025,3.40971 10.27078,-0.0496 9.91099,-1.15598 -0.77877,-2.39465 -10.72984,-1.24332 -31.4955,-7.20827 -33.47123,-9.61464 -3.32412,-4.04865 -1.77808,-12.68774 2.97035,-16.59792 2.36318,-1.946 2.52784,-2.4718 1.48847,-4.75298 -0.64276,-1.41071 -1.67811,-6.72608 -2.30077,-11.81194 -1.80146,-14.71434 0.0534,-34.78097 5.56909,-60.24702 3.32939,-15.37197 3.41449,-15.87451 4.48752,-26.5 0.55149,-5.46095 0.60954,-12.95085 0.13654,-17.61653 l -0.82284,-8.11654 -7.50361,-9.38346 c -4.12699,-5.16091 -9.7159,-12.50952 -12.41981,-16.33026 -4.90787,-6.93501 -4.92717,-6.94886 -11.38557,-8.1721 -8.52918,-1.61545 -14.35136,-3.77604 -20.07829,-7.451 -4.65481,-2.98699 -12.58152,-10.76764 -14.54601,-14.27798 -0.96685,-1.72767 -1.30844,-1.74049 -6.36488,-0.23889 -18.84252,5.59563 -38.8575,-3.37935 -47.30579,-21.21253 -2.9254,-6.17511 -3.2143,-7.72043 -3.68307,-19.70071 -0.47287,-12.08482 -0.72744,-13.42239 -3.61616,-19 -4.89813,-9.45745 -14.89069,-34.96426 -18.30644,-46.72869 -7.95823,-27.40949 -7.75801,-50.95417 0.53506,-62.92108 3.97852,-5.741 8.41352,-8.89987 24.99566,-17.8034 8.37803,-4.49845 14.1786,-8.16829 13.35554,-8.44964 -0.80024,-0.27354 -10.21568,-3.19466 -20.92319,-6.49137 l -19.4682,-5.994 -5.58575,5.32789 c -10.83994,10.33956 -23.33467,13.92753 -35.00382,10.05166 -12.2229,-4.05979 -20.28833,-19.64389 -16.0017,-30.9186 1.56656,-4.12035 8.50787,-10.9621 13.71091,-13.51424 2.64922,-1.29947 4.92195,-2.43693 5.05052,-2.52769 0.12857,-0.0908 -2.13088,-2.60983 -5.02099,-5.59793 -7.99275,-8.26373 -9.65799,-16.21355 -5.33907,-25.48852 2.93743,-6.30817 9.50109,-12.03276 16.01412,-13.96692 8.41597,-2.49927 13.90158,-1.42958 21.18692,4.13144 2.54198,1.94034 4.74534,3.38461 4.89635,3.20949 0.15101,-0.17512 1.0144,-1.77328 1.91866,-3.55147 2.2127,-4.35119 6.12475,-6.16687 14.88211,-6.90713 l 7.33162,-0.61975 2.8498,3.37997 c 3.5347,4.1923 5.54672,8.86828 5.54672,12.8907 0,2.28584 -1.21016,4.36872 -4.71559,8.11631 -8.42673,9.00886 -15.99237,11.89343 -23.27843,8.87545 C 252.13674,340.39979 251,337.67042 251,329.98294 c 0,-5.85868 -0.0217,-5.9018 -4.53645,-9.00802 -7.16336,-4.92852 -12.60406,-6.42541 -18.25526,-5.02255 -13.10718,3.25376 -20.49589,15.56094 -15.80725,26.32975 2.75623,6.3305 8.90556,10.94351 18.34896,13.76475 6.21622,1.85712 5.38812,3.58795 -2.00036,4.18103 -8.52573,0.68436 -15.96787,4.07707 -20.6759,9.42567 -4.38378,4.98024 -5.30843,8.73848 -3.86548,15.71127 1.35183,6.53251 8.3397,13.92682 14.79174,15.65208 10.02972,2.68192 20.37729,-0.84265 30.79793,-10.49033 3.28316,-3.03962 6.80924,-5.5238 7.83573,-5.52039 2.06936,0.007 13.52162,3.2435 38.36634,10.84308 9.075,2.77589 25.5,7.31888 36.5,10.09553 21.77167,5.49565 22.66969,5.98421 25.4245,13.83169 6.09805,17.3712 21.56071,29.83786 34.33224,27.68012 4.95017,-0.83632 11.7596,-6.79319 14.69351,-12.85384 2.70414,-5.58601 2.74601,-14.31767 0.0936,-19.51683 -2.22245,-4.35637 -7.0704,-8.80353 -10.54856,-9.67649 -4.71376,-1.18308 -3.70481,-3.27792 3.28505,-6.82068 12.04029,-6.1025 16.52092,-12.94578 16.47664,-25.16477 -0.0265,-7.30953 -1.43041,-11.46101 -4.95425,-14.65004 C 408.88896,356.58954 401.61531,354 397.89333,354 c -2.31499,0 -2.95913,-0.52033 -3.4044,-2.75 -1.42242,-7.1228 -4.71279,-16.16487 -7.02064,-19.29298 -2.77764,-3.76487 -8.93583,-7.94375 -11.71829,-7.9519 -2.26031,-0.007 -2.20736,-0.4675 0.46973,-4.08845 1.63885,-2.21666 2.31638,-4.75756 2.58905,-9.70951 0.32547,-5.911 0.0621,-7.15733 -2.21835,-10.49953 l -2.58766,-3.79236 2.1439,-2.89978 c 1.90098,-2.57121 2.00089,-3.24504 0.88177,-5.94684 -1.66292,-4.01465 -8.16086,-9.79734 -13.82412,-12.30247 -2.80894,-1.24253 -7.71356,-2.20644 -12.86093,-2.52757 -10.11416,-0.631 -15.72299,1.15183 -20.40696,6.48658 -2.74804,3.12984 -3.08717,4.12489 -2.61921,7.68508 0.41225,3.13645 1.45627,4.91008 4.47899,7.60919 l 3.94143,3.51946 -3.31136,3.83068 c -1.82125,2.10687 -3.61456,5.21114 -3.98514,6.89838 -0.61599,2.8046 -0.76719,2.90322 -1.76296,1.14986 -0.59905,-1.05481 -1.18687,-4.46983 -1.30627,-7.58894 -0.24623,-6.43249 -1.29974,-8.94279 -5.7068,-13.59822 -3.46892,-3.66442 -9.35328,-5.67772 -13.76345,-4.70908 l -2.93099,0.64375 0.6107,-7.33267 c 1.28192,-15.39211 6.75989,-31.72606 13.20285,-39.36766 2.35174,-2.78925 12.91347,-9.07596 20.26887,-12.06472 8.4226,-3.42241 28.53287,-8.10831 40.1575,-9.35712 C 397.38625,213.87576 398,214.25614 398,228.92764 c 0,13.05621 1.42727,23.14969 5.17153,36.57236 2.92975,10.50275 5.90892,17.65203 9.16694,21.99843 2.6539,3.54045 2.89791,0.85594 0.72464,-7.97218 -6.29953,-25.58954 -7.82408,-52.83583 -4.08614,-73.02625 2.8816,-15.56497 4.47531,-19.77244 9.05742,-23.91211 7.4631,-6.74245 11.82849,-5.7655 21.78141,4.87456 14.07875,15.05073 22.74385,33.88497 26.70144,58.03755 2.72929,16.65646 2.39583,18.73709 -4.94248,30.83887 -3.53388,5.82781 -10.30957,15.59081 -15.05709,21.69555 -4.74751,6.10475 -8.90497,11.81129 -9.23879,12.68121 -1.07393,2.79862 11.08509,-6.26133 17.05052,-12.7047 3.14808,-3.40031 6.82826,-8.36196 8.17818,-11.02589 4.26163,-8.40993 4.78022,-7.5499 4.00336,6.63923 -1.58334,28.91907 -8.2241,49.02361 -22.6329,68.51986 -5.54267,7.49966 -17.3144,18.99592 -21.85585,21.34439 -1.65843,0.85761 -3.62759,3.02463 -4.3759,4.81561 -0.74832,1.79097 -2.77486,4.6706 -4.50343,6.39917 -1.72857,1.72857 -3.14286,3.3562 -3.14286,3.61696 0,0.26075 4.3875,3.30541 9.75,6.7659 20.4833,13.21813 39.62124,29.02321 51.9632,42.91384 16.22043,18.25577 24.56361,46.10348 22.83961,76.23366 l -0.67138,11.73366 3.23666,4.76634 c 1.78015,2.62149 8.0172,9.53521 13.86009,15.36384 9.99801,9.97359 10.90626,10.62937 15.42734,11.13896 11.27948,1.27136 41.01959,19.43967 51.28515,31.33023 L 582.38145,604 h 7.08913 c 17.3741,0 49.92264,-6.15773 68.18651,-12.89994 4.4864,-1.65617 13.2614,-5.50416 19.5,-8.55108 12.55279,-6.13075 15.47824,-6.70901 16.73628,-3.3082 1.85582,5.01677 -3.66005,14.57839 -13.85506,24.01741 -7.15679,6.62609 -24.91277,19.63837 -36.53831,26.7767 C 629.23343,638.79488 598.63455,652 592.6025,652 591.39907,652 591,652.99805 591,656.00776 c 0,2.20426 -0.89114,10.41676 -1.98031,18.25 -1.08917,7.83323 -2.67661,20.27427 -3.52764,27.64675 C 583.41984,719.8561 581.35585,728 578.87843,728 c -1.03314,0 -1.9114,-0.5625 -1.9517,-1.25 -0.0403,-0.6875 -1.14602,2.6581 -2.45716,7.43467 -3.51078,12.79008 -11.45958,27.93774 -21.61327,41.18742 l -2.20098,2.87208 2.42234,-0.72128 c 7.64073,-2.27513 20.26703,-8.15509 28.88818,-13.45297 12.39942,-7.61972 17.75254,-9.0333 25.18263,-6.6499 7.08203,2.27176 13.56961,6.63533 23.70819,15.94624 11.84496,10.87797 16.06903,13.16877 23.6258,12.81273 4.7245,-0.22259 6.87705,0.19549 10.01754,1.94565 3.32391,1.85238 5.69023,2.2531 14,2.37075 5.5,0.0779 11.92659,0.74872 14.2813,1.49077 10.69927,3.37168 12.34839,12.10186 4.06759,21.53316 l -3.28508,3.7415 6.05936,5.69538 c 6.78938,6.38154 10.42476,8.59404 25.4425,15.48435 11.51145,5.28157 14.93433,8.17227 14.93433,12.61233 0,3.93343 -5.6363,10.08866 -12.26101,13.3899 -7.54821,3.76143 -14.57732,3.46694 -32.13125,-1.34618 -17.79291,-4.87864 -27.24868,-6.37185 -40.60774,-6.41262 -12.00261,-0.0366 -19.36001,1.57871 -31.5,6.91588 -13.35999,5.87353 -42.83148,15.88872 -58.56152,19.90074 -16.47541,4.20214 -26.91156,5.01391 -47.02473,3.6578 -24.24816,-1.6349 -56.40389,-6.80938 -66.01604,-10.62326 -1.33129,-0.52823 -1.71321,0.42981 -2.25817,5.66455 -1.22845,11.80015 -8.32144,22.04371 -19.46256,28.10747 -16.31906,8.88195 -41.16355,12.81771 -57.92582,9.17638 z m 180.94093,-37.89328 c 12.983,-2.48405 48.51382,-14.18207 69.84405,-22.99516 4.69488,-1.9398 11.44488,-4.27905 15,-5.19834 13.40838,-3.46714 36.37573,-1.43466 58.81639,5.20494 16.8898,4.99724 21.71713,5.3328 28.55928,1.98525 C 730.83327,857.93447 736,853.05053 736,850.57826 c 0,-2.16774 -3.11695,-4.14712 -14.39098,-9.13882 -17.87018,-7.9122 -22.40387,-11.43146 -42.60902,-33.07502 -6.1472,-6.58483 -8.58224,-8.44926 -13.5,-10.33654 -3.3,-1.26643 -8.33385,-2.51913 -11.18632,-2.78379 -4.71276,-0.43725 -6.29227,0.0383 -17.29812,5.20777 -15.36314,7.21615 -21.02743,9.14801 -31.17102,10.6312 -12.97818,1.89766 -24.96024,0.56699 -45.34454,-5.03573 -14.88763,-4.09194 -30.85771,-0.46369 -38.50424,8.74781 -4.08952,4.92649 -9.87028,16.56797 -10.65076,21.44883 -0.78176,4.88881 -2.01314,3.2603 -2.89961,-3.83475 -0.76001,-6.0829 1.39159,-15.50241 5.09468,-22.30404 4.32822,-7.94985 12.23321,-17.72113 25.82268,-31.91915 7.40522,-7.73684 14.37126,-16.02029 15.96548,-18.98486 3.50128,-6.51088 5.06269,-19.8145 4.09506,-34.89101 l -0.65399,-10.18984 -6.13465,-2.44007 c -7.79114,-3.09894 -9.99548,-3.55564 -22.1664,-4.59249 -20.47032,-1.74389 -40.88862,2.1914 -55.39515,10.67651 l -6.42691,3.7592 -2.36326,7.98827 c -1.2998,4.39354 -4.09622,13.61326 -6.21428,20.48826 -10.55464,34.25925 -10.49548,34.00743 -8.70278,37.04223 3.06243,5.18428 1.15983,17.18405 -3.94847,24.90322 -3.22273,4.86988 -6.75308,20.95379 -6.0865,27.72948 0.28,2.84621 1.50989,7.34621 2.73307,10 1.22319,2.65379 3.22975,8.18548 4.45903,12.29264 l 2.23505,7.46757 4.87098,1.29032 c 11.26358,2.98371 56.89456,10.2869 69.37097,11.10275 19.84192,1.29748 20.18217,1.29461 28.19209,-0.23795 z m 139.49346,-70.76457 c 2.74829,-2.58189 3.06229,-7.34186 0.65946,-9.99695 C 692.04713,799.39459 690.20523,799 684.80874,799 h -6.88128 l 5.78627,6.97602 c 3.18245,3.8368 5.98227,6.9868 6.22182,7 0.23955,0.0132 1.47705,-0.95446 2.75,-2.15033 z m -81.48477,-4.91578 c 5.15839,-1.06112 17.90535,-6.70299 24.6387,-10.90521 2.90278,-1.8116 3.16432,-2.29544 2,-3.70002 -3.04345,-3.67148 -14.9566,-12.34589 -21.90203,-15.94771 -7.37151,-3.82277 -7.53941,-3.85692 -18.93745,-3.85138 -10.62332,0.005 -12.30045,0.28264 -22,3.63983 -13.60557,4.70912 -24.64918,10.12222 -28.73981,14.08702 -1.79311,1.73794 -3.26019,3.48586 -3.26019,3.88427 0,0.39841 1.4625,1.0129 3.25,1.36553 1.7875,0.35264 9.1,2.6201 16.25,5.03881 18.24465,6.17183 37.48541,8.69595 48.70078,6.38886 z M 447.31827,775.91838 c 1.00571,-3.53011 4.45767,-14.96838 7.67101,-25.41838 6.45963,-21.00712 12.44022,-43.43432 16.66669,-62.5 2.70138,-12.186 2.7747,-13.34151 2.91875,-46 0.14291,-32.40065 0.23569,-33.8938 2.82731,-45.5 8.25413,-36.96496 11.13852,-54.51908 12.24139,-74.5 1.13846,-20.62578 -3.99154,-44.52515 -12.72448,-59.28018 -5.26136,-8.88949 -23.20105,-27.00284 -37.43118,-37.79352 C 427.23182,415.63265 405.64316,401 404.18747,401 c -2.54184,0 -1.83934,2.00553 2.1672,6.18698 9.29786,9.70379 8.85796,26.08785 -1.0155,37.82179 -7.27856,8.65008 -22.06698,9.2872 -33.40866,1.43932 -4.80718,-3.32633 -8.71867,-2.0986 -11.06372,3.47266 -1.9951,4.73985 -5.49541,7.17035 -11.26264,7.8204 -6.73539,0.75918 -11.39021,-1.33257 -18.22761,-8.19097 -5.62302,-5.6403 -6.25638,-6.7267 -7.75,-13.29363 -2.28216,-10.03392 -2.11065,-12.86335 0.96627,-15.94027 2.24962,-2.24962 2.50931,-3.1496 1.962,-6.79933 l -0.63081,-4.20653 -9.69092,-2.60302 c -8.05623,-2.16394 -9.94751,-2.38279 -11.212,-1.2974 -0.8366,0.7181 -8.049,5.1433 -16.02757,9.83378 -15.75596,9.2627 -22.51002,15.30443 -26.31424,23.53899 -1.96357,4.25033 -2.17735,6.35036 -2.15982,21.21723 0.0214,18.12597 0.97912,23.06213 6.68387,34.44772 3.536,7.05718 10.42217,16.97564 14.269,20.55228 2.66427,2.47713 2.70258,2.48171 4.18804,0.5 6.02361,-8.0359 8.20187,-17.53244 8.37215,-36.5 0.12301,-13.70194 1.81624,-10.19087 2.65773,5.51102 0.62621,11.68501 0.36081,13.74586 -5.76816,44.78955 -5.31402,26.91593 -2.98614,42.08052 8.34709,54.37562 5.53155,6.00102 8.42702,7.32381 16.03113,7.32381 5.50869,0 6.97014,-0.41328 10.49768,-2.96862 5.34959,-3.87522 5.81161,-4.94094 6.5594,-15.13041 0.82202,-11.20073 4.14886,-24.08765 10.6883,-41.40234 8.1496,-21.57796 8.73978,-26.48497 5.38206,-44.74863 -1.42592,-7.756 3.44473,-2.10231 7.06026,8.19532 l 1.24805,3.55468 1.08651,-4 c 0.59758,-2.2 1.34856,-5.26947 1.66885,-6.82104 0.78555,-3.80536 2.94551,-2.8792 3.26115,1.39834 0.26829,3.63579 -2.84457,13.09214 -9.68545,29.4227 -5.19683,12.40589 -10.69089,31.29414 -12.26071,42.15156 -1.00899,6.97849 -0.94305,9.33965 0.43862,15.70654 2.26647,10.44415 6.22991,18.23904 12.42744,24.441 12.03723,12.04585 27.81335,13.45636 37.66482,3.36754 3.4951,-3.57931 3.9162,-4.71421 6.76845,-18.2417 1.67281,-7.93372 3.88054,-18.3981 4.90606,-23.25417 4.31055,-20.41144 3.62513,-28.83714 -3.18187,-39.11382 -1.69186,-2.55425 -2.88366,-4.83654 -2.64845,-5.07176 1.07994,-1.07994 7.01417,4.54452 10.00592,9.4836 3.17096,5.23494 3.30737,5.87637 3.19001,15 -0.0868,6.74746 -1.01076,13.32808 -3.16355,22.53121 -9.06783,38.76468 -9.4809,44.88288 -4.32091,64 1.78144,6.6 4.13586,15.375 5.23205,19.5 3.47974,13.09444 2.88552,28.37369 -2.06121,53 -2.26483,11.275 -4.77889,24.55 -5.5868,29.5 -1.72631,10.57691 -1.96756,37.66611 -0.39119,43.92642 l 1.08579,4.31207 18.16421,0.54942 c 9.99032,0.30218 19.51421,0.99523 21.16421,1.54011 1.65,0.54488 3.44768,0.88226 3.99485,0.74972 0.54717,-0.13254 1.81771,-3.12925 2.82342,-6.65936 z M 377.17668,476.25 c 0.55503,-3.00413 6.7876,-5.04021 22.22236,-7.25968 16.5899,-2.38557 29.46649,-3.03245 29.66564,-1.49032 0.23013,1.78208 -6.34095,3.28329 -25.99749,5.93932 -10.60531,1.43301 -20.10438,3.0454 -21.10904,3.58308 -2.90462,1.5545 -5.14453,1.19267 -4.78147,-0.7724 z m -50.92041,-4.02233 c -1.51595,-2.07478 -5.27774,-6.91228 -8.35954,-10.75 C 309.49329,451.013 296,427.47357 296,423.27821 c 0,-4.20174 4.52785,1.76338 15.54966,20.48555 2.67569,4.54507 6.79583,10.62007 9.15585,13.5 7.36506,8.98757 11.56506,15.58876 10.94553,17.20322 -0.93463,2.43562 -2.43363,1.8134 -5.39477,-2.23931 z M 500.60094,703.5109 c 9.78664,-2.02148 31.68995,-1.97149 40.89906,0.0933 14.88618,3.33773 19.51267,2.93283 28.25604,-2.47289 3.53039,-2.18272 4.74824,-3.82484 7.14295,-9.63136 5.27394,-12.78789 8.20267,-27.3989 8.8241,-44.02217 0.61442,-16.43576 -0.46304,-25.67801 -3.93421,-33.74696 -4.20068,-9.76474 -28.06321,-28.65412 -43.69636,-34.58966 -13.1192,-4.98106 -12.46933,-5.06776 -15.83801,2.11291 -6.45905,13.76811 -22.03853,35.38616 -34.73308,48.19555 l -8.72073,8.79963 0.68559,5.48727 0.68559,5.48727 11.75673,-11.61192 C 498.39481,631.22536 504.20614,626 504.84267,626 c 2.16163,0 1.16826,3.09365 -2.93227,9.13194 -2.24928,3.31221 -3.9243,6.18749 -3.72227,6.38952 0.20203,0.20203 4.56544,-1.20955 9.69647,-3.13684 8.75458,-3.28835 19.1154,-5.46483 19.1154,-4.01553 0,0.35622 -3.78567,2.39665 -8.41259,4.5343 -15.36794,7.1 -32.33872,19.988 -37.44627,28.43754 -2.23928,3.70449 -7.70778,34.26526 -6.78749,37.93197 1.04598,4.16752 4.27791,4.72893 12.03945,2.09136 3.79121,-1.28835 10.18474,-3.02236 14.20784,-3.85336 z m -13.21839,-81.63934 c 3.76147,-1.71384 14.50546,-15.59159 24.53724,-31.69416 7.7615,-12.45842 7.72388,-12.2143 2.78735,-18.08781 C 508.32392,564.4948 497.66802,557 493.25318,557 c -4.07939,0 -13.73955,57.07824 -10.90869,64.45534 0.70594,1.83966 1.72854,1.92414 5.03806,0.41622 z M 354.92327,451.41111 c 1.6922,-1.4239 3.07673,-2.9989 3.07673,-3.5 C 358,447.41 355.15919,447 351.68709,447 c -5.66513,0 -6.59889,-0.29851 -9.1,-2.9091 -3.25056,-3.39285 -3.67748,-8.08165 -1.17624,-12.9185 1.62538,-3.14314 7.97705,-8.1724 10.32128,-8.1724 1.65669,0 1.6252,-3.12907 -0.0546,-5.42635 -1.22077,-1.6695 -1.55163,-1.6901 -4.30186,-0.2679 -3.96026,2.04792 -11.17552,9.97102 -12.95191,14.22252 C 333.64068,433.40239 333,436.90867 333,439.32 c 0,11.35665 13.77041,18.95129 21.92327,12.09111 z m -12.85088,-37.73872 c -0.51249,-0.51249 -2.65093,-0.98593 -4.75209,-1.05209 -3.15838,-0.0995 -3.87196,0.24123 -4.11844,1.96632 -0.28475,1.99286 -0.0712,2.04014 4.75209,1.05209 3.12038,-0.6392 4.69416,-1.3906 4.11844,-1.96632 z m 95.14914,-122.73435 c 13.98964,-20.44218 15.40423,-51.13585 3.78765,-82.18396 C 438.60982,202.34123 431.74059,194 428.85878,194 c -7.97938,0 -12.50048,46.38826 -7.00553,71.87961 1.96286,9.10578 7.51074,28.17438 8.85143,30.42318 0.93663,1.57105 2.846,-7.7e-4 6.51685,-5.36475 z m -77.52315,-23.41245 c 4.29089,-1.36093 10.69127,-4.17343 14.22306,-6.25 C 381.05175,257.08321 390,248.76546 390,246.32994 c 0,-1.14648 -0.34,-1.29266 -1.25,-0.53742 -0.6875,0.57057 -1.7,1.0684 -2.25,1.10628 -0.55,0.0379 -4.30586,2.16304 -8.34635,4.7226 -4.0405,2.55955 -10.5655,6.03229 -14.5,7.71719 -6.25965,2.68061 -8.34087,3.06958 -16.65365,3.11243 -12.76668,0.0658 -22.01271,-2.75646 -27.96972,-8.53754 -4.81527,-4.67307 -7.27037,-4.21223 -4.6416,0.87125 2.68944,5.20081 9.42981,10.07012 17.56874,12.69184 9.95657,3.20722 17.74004,3.22097 27.74096,0.049 z m 352.61815,559.16597 c -6.88283,-3.4232 -8.45481,-4.6718 -9.89072,-7.85609 l -1.70726,-3.78602 3.48862,-4.27472 c 1.91875,-2.3511 4.19602,-5.62473 5.0606,-7.27473 l 1.57198,-3 1.17511,3 c 4.13125,10.54683 9.0151,25.05963 8.77242,26.06799 -0.18434,0.76594 -3.21952,-0.26472 -8.47075,-2.87643 z m -21.0153,-38.61416 -6.19877,-0.5774 -4.19338,-6 c -5.12114,-7.32748 -14.75777,-19.14371 -18.26452,-22.39555 l -2.58333,-2.39555 -4.76694,3.89555 c -2.62181,2.14255 -6.92561,5.80805 -9.56399,8.14555 -2.63838,2.3375 -5.1536,4.25 -5.58937,4.25 -0.43576,0 -1.88324,-1.16224 -3.21662,-2.58275 -1.33337,-1.42051 -5.96775,-5.13301 -10.29863,-8.25 -4.33087,-3.11699 -8.83087,-6.44657 -10,-7.39907 l -2.12568,-1.73182 5,-4.77852 c 2.75,-2.62819 7.41152,-6.82658 10.35893,-9.32975 l 5.35893,-4.55123 -6.35893,-4.10552 C 621.34555,725.42048 604.76574,716.44588 597,713.0262 c -3.025,-1.33207 -5.81007,-2.6704 -6.18905,-2.97407 -0.37898,-0.30367 -0.0447,-4.82713 0.74293,-10.05213 0.78759,-5.225 1.43516,-11.61094 1.43905,-14.19098 0.004,-2.58004 0.45106,-4.96539 0.99372,-5.30077 2.44525,-1.51125 32.61785,16.29235 50.33803,29.70236 15.05737,11.39491 32.53702,30.28432 44.62072,48.21947 5.26896,7.82041 16.0546,27.57455 16.0546,29.40435 0,1.2198 -2.69814,1.26765 -13.69877,0.24297 z M 277,726.35088 c -10.29011,-3.5527 -14.93978,-10.1359 -14.97804,-21.20654 -0.0341,-9.875 2.32987,-17.03214 12.92933,-39.14434 9.70678,-20.24993 12.97556,-28.62128 15.08154,-38.62385 l 1.07879,-5.12385 10.69419,-0.49283 c 7.96933,-0.36725 11.94055,-1.04279 15.58573,-2.65128 2.69034,-1.18715 4.63853,-2.41146 4.3293,-2.72068 -0.30923,-0.30923 -3.04755,-0.0463 -6.08517,0.58433 -8.03754,1.66858 -26.08711,1.72831 -28.05773,0.0928 C 286.46091,616.13763 286,613.99918 286,609.74357 c 0,-7.76759 1.76958,-13.54649 4.74515,-15.49616 2.18624,-1.43248 2.66455,-1.38543 6.21783,0.61163 9.41951,5.29406 21.938,7.73985 30.51357,5.96157 9.52667,-1.97551 9.01644,-2.35093 9.07786,6.67939 0.0452,6.65348 0.6037,9.34652 3.31789,16 6.79851,16.6657 14.26357,37.91233 16.26637,46.29644 3.44604,14.42582 1.48545,24.75441 -7.29877,38.45058 -6.0084,9.36817 -15.01911,13.95848 -35.00569,17.83287 -12.35672,2.39535 -30.29885,2.52735 -36.83421,0.27099 z m 28,-342.97074 c -11.825,-0.72196 -23.75,-1.9189 -26.5,-2.65986 l -5,-1.34721 -0.86095,-6.93654 C 272.08883,368.00344 272.18743,362.07139 272.91226,356 l 1.13416,-9.5 5.57321,-5.38438 c 9.15754,-8.84727 10.7141,-12.77458 8.3854,-21.15696 -0.54109,-1.94774 -2.11358,-5.07266 -3.49442,-6.94428 C 283.12977,311.14276 282,309.24887 282,308.80572 282,308.36257 284.05962,308 286.57692,308 c 5.94449,0 9.84693,-3.59285 10.9178,-10.05167 1.04683,-6.31379 2.03703,-7.72503 6.23322,-8.88366 2.98172,-0.82329 4.39124,-0.68551 7.22504,0.70625 7.0626,3.46864 10.58077,13.62609 6.11834,17.66453 -1.06077,0.95999 -7.215,3.40492 -13.67606,5.43319 -6.46107,2.02827 -11.95344,4.30589 -12.20527,5.06138 -1.08141,3.24423 22.93173,-1.75853 28.94454,-6.03014 l 2.63453,-1.87163 1.29182,3.11873 c 4.46442,10.77806 14.34751,14.82858 36.22236,14.84547 8.42883,0.006 10.46227,0.35164 14.68799,2.49297 7.60324,3.85285 10.10525,7.87116 10.74899,17.26318 l 0.53587,7.81812 -3.37805,2.32807 c -1.85792,1.28043 -4.95304,4.36544 -6.87804,6.85557 -14.61509,18.9057 -14.55223,18.87069 -35,19.49777 -7.975,0.24457 -24.175,-0.14602 -36,-0.86799 z m 4.8041,-19.50239 c 0.46996,-4.05258 -5.69772,-5.20332 -7.18033,-1.33968 -1.08072,2.81629 0.47556,4.58478 3.75388,4.26577 2.52967,-0.24617 3.18007,-0.80159 3.42645,-2.92609 z m -7.63284,-10.53274 C 305.45788,350.37066 303.94663,345 299.82305,345 c -0.97732,0 -2.51407,1.125 -3.41501,2.5 -1.51741,2.31587 -1.51741,2.68413 0,5 1.91626,2.92457 3.24935,3.12003 5.76322,0.84501 z m 14.25731,-4.91644 c 2.06659,-2.06659 1.9844,-3.74487 -0.28395,-5.79769 -3.46786,-3.13837 -7.4808,1.00394 -5.16484,5.33135 1.30517,2.43873 3.30523,2.60991 5.44879,0.46634 z m -54.32352,28.7565 c -3.2993,-1.03521 -6.14898,-2.7027 -7.33612,-4.29275 -1.87833,-2.51581 -1.88982,-2.94575 -0.35506,-13.27644 0.87237,-5.87203 1.58613,-10.8644 1.58613,-11.09413 0,-0.22974 1.37229,0.0607 3.04953,0.64536 1.67725,0.58469 4.32096,0.80879 5.87492,0.498 l 2.82538,-0.56508 -0.12491,14.94981 c -0.0687,8.2224 -0.12492,14.9224 -0.12492,14.88889 0,-0.0335 -2.42773,-0.82265 -5.39495,-1.75366 z m 86.05324,-84.09248 c -12.45702,-0.5533 -13.46824,-0.74913 -15.25,-2.95337 -2.91099,-3.60125 -2.48957,-8.47232 0.98601,-11.39682 3.51584,-2.95839 12.53298,-4.17854 20.17283,-2.72967 9.25722,1.7556 18.93287,8.39909 18.93287,12.99968 0,4.16307 -4.89055,4.96633 -24.84171,4.08018 z m -2.52925,-77.61691 c -1.16342,-3.03182 -0.64223,-13.06827 0.95856,-18.4587 C 348.39977,190.91473 352.71617,186 356.26335,186 c 4.68483,0 15.079,6.22891 22.48665,13.47557 3.9875,3.90084 7.25,7.60725 7.25,8.23647 0,0.64901 -2.48805,1.43168 -5.75,1.80878 -5.59654,0.64699 -29.12364,5.71056 -32.37096,6.96696 -1.00612,0.38928 -1.85955,0.005 -2.25,-1.0121 z" />
  </g>
</svg>
