<?xml version="1.0" encoding="UTF-8" standalone="no"?>
<svg
   xmlns:dc="http://purl.org/dc/elements/1.1/"
   xmlns:cc="http://creativecommons.org/ns#"
   xmlns:rdf="http://www.w3.org/1999/02/22-rdf-syntax-ns#"
   xmlns:svg="http://www.w3.org/2000/svg"
   xmlns="http://www.w3.org/2000/svg"
   viewBox="0 0 397.51196 449.86414"
   height="449.86414"
   width="397.51196"
   id="svg2"
   version="1.1">
  <metadata
     id="metadata8">
    <rdf:RDF>
      <cc:Work
         rdf:about="">
        <dc:format>image/svg+xml</dc:format>
        <dc:type
           rdf:resource="http://purl.org/dc/dcmitype/StillImage" />
        <dc:title></dc:title>
      </cc:Work>
    </rdf:RDF>
  </metadata>
  <defs
     id="defs6" />
  <g
     transform="translate(-140.16295,-105.3966)"
     id="g10">
    <g
       id="g851">
      <path
         d="m 287.13126,554.32049 c -30.44112,-2.29447 -53.64434,-8.4943 -77.09829,-20.60044 -31.33348,-16.17329 -50.50594,-39.22115 -62.24222,-74.82345 -9.3494,-28.36165 -10.13131,-65.72433 -2.19566,-104.91713 14.48831,-71.55528 57.05508,-143.23502 112.03617,-188.66179 7.92552,-6.54826 24.70165,-18.92198 25.65226,-18.92056 0.19126,2.8e-4 0.34774,2.73212 0.34774,6.07075 v 6.07024 l -5.5,2.67924 c -4.39975,2.14328 -5.56219,3.21794 -5.81091,5.37207 -0.45065,3.90323 4.32763,6.16151 12.78353,6.04168 6.29519,-0.0892 6.59842,0.026 11.06195,4.20107 4.49803,4.20738 8.96543,7.21755 8.96543,6.04098 0,-0.32661 -1.38747,-2.32035 -3.08326,-4.43054 -4.86,-6.04762 -3.9394,-7.90851 5.08326,-10.27528 7.43915,-1.95139 7.91984,-1.92733 14.25,0.71325 1.33463,0.55673 1.75,0.2439 1.75,-1.31797 0,-2.64045 1.15904,-3.29775 5.75606,-3.26429 12.47336,0.0908 16.87571,2.03383 21.12534,9.32404 2.42659,4.16279 3.07913,4.77725 3.09654,2.91583 0.0192,-2.05362 0.36725,-2.27177 2.69314,-1.68801 1.46909,0.36872 3.78779,1.54881 5.15266,2.62241 3.30937,2.60316 3.92752,1.69798 1.21102,-1.77333 -6.56061,-8.38352 -23.49789,-18.44828 -35.23488,-20.93787 -7.96828,-1.6902 -18.34291,-1.31217 -29.63127,1.07971 l -6.33139,1.34155 -1.96375,-4.58123 c -3.43362,-8.01032 -3.57036,-7.78777 9.3528,-15.22302 36.62859,-21.074 77.09202,-31.9818 118.63926,-31.9818 49.38467,0 84.71711,17.9779 101.49147,51.64102 9.79704,19.66088 11.29768,46.75323 4.15031,74.92899 -11.32097,44.62862 -48.90231,88.45445 -99.00731,115.45829 -4.4,2.37136 -11.18298,6.21647 -15.0733,8.5447 -6.66346,3.98786 -11.12141,5.74733 -39.4267,15.56101 -29.5307,10.23853 -68.63749,17.90642 -104.28387,20.44752 l -9.78388,0.69746 0.60826,6.1105 c 3.41931,34.35015 12.14088,52.41385 30.97411,64.15209 28.8108,17.95698 59.46187,18.60494 119.52424,2.52672 38.46683,-10.29727 72.72395,-24.44456 112.80442,-46.58528 l 8.34327,-4.60888 -0.60659,2.81293 c -0.33362,1.54711 -4.34334,21.71293 -8.91048,44.81293 l -8.30389,42 -7.43279,3.67302 c -9.83402,4.85962 -34.14641,14.54733 -50.9328,20.29511 -38.89276,13.31714 -84.66772,22.40699 -131,26.01356 -10.725,0.83485 -20.175,1.45395 -21,1.37577 -0.825,-0.0782 -6.225,-0.49829 -12,-0.93357 z m 10.23209,-5.12015 c 0.21931,-0.65794 -0.22048,-2.99357 -0.97732,-5.1903 -1.66802,-4.84147 -0.94078,-8.61344 1.66069,-8.61344 1.68108,0 3.07723,1.35413 10.13885,9.8337 2.1144,2.53896 4.25808,2.46792 4.76736,-0.158 0.19735,-1.01752 -0.96217,-2.42256 -3,-3.63521 -3.5504,-2.11274 -9.3814,-8.8141 -8.46592,-9.72957 1.05953,-1.05953 5.42014,0.6893 10.59555,4.24935 5.2158,3.58784 8.48668,3.9202 7.87261,0.79994 -0.17815,-0.90522 -0.99891,-1.95872 -1.82391,-2.34113 -15.00919,-6.95717 -17.91669,-9.76154 -9.02922,-8.70895 2.88253,0.3414 5.84862,1.12502 6.59129,1.74138 1.57826,1.30985 3.43793,0.44897 3.43793,-1.59147 0,-0.78207 -1.2375,-1.66598 -2.75,-1.96426 -13.73124,-2.70794 -17.25,-4.23559 -17.25,-7.48897 0,-1.2236 1.48344,-2.79423 3.9923,-4.22695 4.3178,-2.46574 5.43858,-5.77986 1.95465,-5.77986 -1.12918,0 -3.70864,1.125 -5.73214,2.5 -2.96096,2.01203 -4.90733,2.5 -9.9717,2.5 -5.63898,0 -6.38309,0.23798 -7.16369,2.2911 -0.47909,1.2601 -1.59295,2.8902 -2.47524,3.62244 -2.6901,2.23258 -1.87783,4.01318 5.2201,11.44304 6.74675,7.06227 9.17572,11.78556 9.17572,17.84277 0,3.49283 2.31432,5.35769 3.23209,2.60439 z m 69.51791,-10.64722 c 2.38592,-0.16598 3.20511,-2.15652 0.8875,-2.15652 -0.74937,0 -3.06124,-1.35 -5.1375,-3 -5.85756,-4.65501 -10.07805,-3.58687 -8.69788,2.2013 0.46292,1.94139 4.50845,3.56791 8.19788,3.296 1.375,-0.10134 3.5125,-0.25469 4.75,-0.34078 z m -31.75,-4.5975 c 0,-0.24254 -0.45,-0.7191 -1,-1.05902 -0.55,-0.33992 -1,-0.14148 -1,0.44098 0,0.58246 0.45,1.05902 1,1.05902 0.55,0 1,-0.19844 1,-0.44098 z m 14.9068,-2.94672 c 0.63343,-0.76323 1.6914,-3.96079 2.35104,-7.10568 1.14047,-5.43719 1.08992,-5.8066 -1.02924,-7.52259 -1.22573,-0.99254 -2.2286,-2.28343 -2.2286,-2.86864 0,-3.4418 -15.45849,-6.67772 -17.89214,-3.74535 -1.91678,2.30958 -0.91055,3.97355 5.08144,8.40306 3.72418,2.75306 5.72207,5.09111 6.68772,7.82639 2.25913,6.39915 4.53333,8.02085 7.02978,5.01281 z m -99.48859,-1.21929 c 2.9649,-1.13774 0.98847,-11.15076 -2.82585,-14.31636 -3.17871,-2.6381 -14.59236,1.60476 -14.59236,5.4245 0,2.128 2.90893,4.49885 5.51991,4.49885 1.30737,0 3.59094,1.125 5.07459,2.5 2.77906,2.57554 4.09426,2.9404 6.82371,1.89301 z m 122.51191,-3.85688 c 2.94778,-1.52435 10.51905,-9.4203 9.7604,-10.17895 -0.25573,-0.25572 -1.97821,0.45761 -3.82774,1.58519 -2.1228,1.29419 -5.09028,2.05153 -8.04768,2.05389 -8.34354,0.007 -11.41221,2.18984 -9.66948,6.87928 0.79435,2.1375 1.2927,2.30999 4.97357,1.72139 2.24991,-0.35977 5.31484,-1.28713 6.81093,-2.0608 z M 262.88282,522.1466 c 2.75093,-2.94717 3.60901,-6.67144 2.31891,-10.06466 -1.49858,-3.94155 -3.59438,-4.28585 -7.58068,-1.24535 -3.72516,2.84132 -4.44459,5.87751 -2.34009,9.87575 2.2438,4.26286 4.55464,4.69885 7.60186,1.43426 z m -37.0443,-4.98834 c -0.23919,-1.24391 -0.44398,-0.46166 -0.45508,1.73834 -0.0111,2.2 0.18461,3.21775 0.4349,2.26166 0.25029,-0.95609 0.25937,-2.75609 0.0202,-4 z m 138.57486,-2.11718 c 5.52741,-2.32841 19.02239,-15.67331 17.44485,-17.25085 -0.27017,-0.27016 -3.35676,0.86538 -6.85909,2.52343 -3.50234,1.65805 -8.9731,3.72273 -12.15726,4.58817 -7.01086,1.90553 -9.05391,4.7957 -6.32942,8.95381 1.89364,2.89005 3.33939,3.10697 7.90092,1.18544 z M 226.79354,511.1466 c -0.27741,-0.6875 -0.50439,-0.125 -0.50439,1.25 0,1.375 0.22698,1.9375 0.50439,1.25 0.27741,-0.6875 0.27741,-1.8125 0,-2.5 z m -12.66228,1.75 c 0,-0.275 -0.225,-0.5 -0.5,-0.5 -0.275,0 -0.5,0.225 -0.5,0.5 0,0.275 0.225,0.5 0.5,0.5 0.275,0 0.5,-0.225 0.5,-0.5 z m 28.48462,-2.48724 c 1.86763,-1.54999 2.79298,-7.62555 1.52288,-9.99875 -2.65477,-4.96048 -12.0075,0.86542 -12.0075,7.47958 0,1.83686 0.5625,3.58735 1.25,3.88998 1.78607,0.7862 7.69192,-0.0905 9.23462,-1.37081 z m -35.93687,-4.65878 c 1.69903,-1.83328 2.45225,-3.8009 2.45225,-6.40592 0,-3.63898 0.0789,-3.72272 2.45353,-2.60397 1.34944,0.63575 2.77145,2.28091 3.16001,3.65591 0.58879,2.08358 0.77849,2.19203 1.13883,0.65113 0.2565,-1.09688 -0.69814,-3.02886 -2.3471,-4.75 -2.69679,-2.81485 -2.71397,-2.90113 -0.57766,-2.90113 1.41093,0 2.91354,1.16737 4.18335,3.25 1.08986,1.7875 1.98325,2.93367 1.9853,2.54705 0.006,-1.20912 -2.28762,-5.79628 -2.90678,-5.81236 -0.32421,-0.008 -1.24715,-0.4313 -2.05097,-0.93973 -1.2024,-0.76053 -0.9808,-1.30252 1.25,-3.05726 1.49132,-1.17307 2.71149,-2.62864 2.71149,-3.23459 0,-0.60596 -1.0415,-0.1233 -2.31445,1.07258 -2.92384,2.7468 -5.16165,2.76037 -7.06507,0.0429 -0.91078,-1.30031 -2.10272,-1.89747 -3.05671,-1.53138 -0.88854,0.34096 -1.57038,0.0739 -1.57908,-0.61854 -0.01,-0.78302 -0.34786,-0.69279 -0.94563,0.25242 -1.24735,1.97234 -2.20035,0.82428 -3.07968,-3.71 l -0.72938,-3.76109 -0.115,3.31574 c -0.0633,1.82366 0.36473,4.21213 0.95107,5.30771 0.99282,1.85511 0.82894,1.94748 -2.38548,1.34445 -2.30571,-0.43255 -3.71002,-0.2293 -4.23011,0.61223 -0.54905,0.88838 -0.28802,1.07151 0.88548,0.62119 2.04408,-0.78439 4.85638,0.17845 4.09928,1.40346 -0.3043,0.49237 -1.35697,0.89522 -2.33927,0.89522 -0.9823,0 -2.64324,1.0125 -3.69098,2.25 -1.8898,2.23206 -1.88904,2.23672 0.095,0.58376 1.27077,-1.0587 2.99467,-1.4735 4.728,-1.13763 2.55555,0.4952 2.63457,0.662 1.25,2.63875 -1.97089,2.81384 -1.87693,8.56683 0.17699,10.83638 2.31585,2.55899 5.02359,2.2786 7.89276,-0.81728 z m 60.43694,-0.72642 c 0.008,-0.47985 -0.65474,-0.31636 -1.47368,0.3633 -0.81894,0.67967 -1.21269,1.68281 -0.875,2.22921 0.61975,1.00278 2.31849,-0.87232 2.34868,-2.59251 z m -51.30158,0.18494 c -0.31922,-0.79773 -0.55618,-0.56078 -0.60416,0.60417 -0.0434,1.05416 0.19292,1.64479 0.52522,1.3125 0.33229,-0.33229 0.36781,-1.1948 0.0789,-1.91667 z m -27.68311,0.6875 c 0,-0.275 -0.225,-0.5 -0.5,-0.5 -0.275,0 -0.5,0.225 -0.5,0.5 0,0.275 0.225,0.5 0.5,0.5 0.275,0 0.5,-0.225 0.5,-0.5 z m 76.8,-2.7 c 2.7965,-2.7965 0.68455,-10.8 -2.84988,-10.8 -3.38676,0 -7.59336,9.02342 -5.28345,11.33333 1.11872,1.11872 6.8576,0.7424 8.13333,-0.53333 z m 75.6349,0.22475 c 2.84438,-1.08143 3.14649,-2.77494 1.37097,-7.68506 -1.00115,-2.76863 -0.91342,-3.89094 0.54286,-6.9448 1.97679,-4.14538 1.68537,-5.01869 -1.1656,-3.4929 -3.24549,1.73693 -8.25662,8.77603 -8.84977,12.4312 -0.45189,2.78462 -0.12956,3.69615 1.77992,5.0336 2.73195,1.91353 2.95748,1.93701 6.32162,0.65796 z m 15.15849,-1.27475 c 1.5747,-1.2375 4.01316,-3.4525 5.41879,-4.92222 1.40563,-1.46973 4.94814,-4.28223 7.87225,-6.25 6.1537,-4.14114 5.18219,-4.36506 -6.36892,-1.46796 -12.29748,3.0843 -20.31156,10.57981 -14.76551,13.81008 2.70962,1.57821 4.72989,1.27687 7.84339,-1.1699 z m 113.35167,-2.23844 c 6.56762,-1.38155 14.33035,-4.69324 18.17836,-7.75515 5.98147,-4.75954 7.77634,-15.60194 3.61851,-21.85853 -5.79003,-8.71267 -17.08664,-9.99702 -30.3357,-3.44899 -6.71117,3.31684 -16.40623,11.3899 -16.40623,13.66144 0,2.00048 3.59788,2.13087 14.80567,0.53656 7.00297,-0.99617 11.95416,-1.28706 12.50644,-0.73478 0.55229,0.55229 -1.58574,2.82908 -5.40054,5.75105 -12.97061,9.93493 -15.92418,13.35807 -12.66157,14.67456 2.42045,0.97667 8.6947,0.64641 15.69506,-0.82616 z m -279.27839,-2.17823 c -0.36667,-0.36666 -0.66667,-0.0667 -0.66667,0.66667 0,0.73333 0.3,1.03333 0.66667,0.66667 0.36666,-0.36667 0.36666,-0.96667 0,-1.33334 z m 64.36862,-1.58333 c 2.72804,-4.42003 2.25134,-8.15837 -1.08995,-8.54757 -3.1575,-0.3678 -7.94534,3.20916 -7.94534,5.93589 0,6.34119 5.71404,7.99285 9.03529,2.61168 z m -12.03529,-1.36803 c 0,-0.825 -0.45,-1.22189 -1,-0.88197 -0.55,0.33992 -1,1.29303 -1,2.11803 0,0.825 0.45,1.22189 1,0.88197 0.55,-0.33992 1,-1.29303 1,-2.11803 z m 182.68396,-1.00078 c 0.34827,-0.90756 -0.65114,-3.97055 -2.28218,-6.99442 -2.69853,-5.00296 -3.1593,-5.38002 -6.57839,-5.38327 -3.40059,-0.003 -3.90814,0.40118 -6.76068,5.38689 -4.34941,7.60199 -3.73415,8.40288 6.54056,8.51397 6.92136,0.0748 8.57385,-0.20235 9.08069,-1.52317 z M 191.63126,490.3966 c 0.33992,-0.55 0.39303,-1 0.11803,-1 -0.275,0 -0.77811,0.45 -1.11803,1 -0.33992,0.55 -0.39303,1 -0.11803,1 0.275,0 0.77811,-0.45 1.11803,-1 z m 74,-2 c 0.33992,-0.55 0.31023,-1.49804 -0.066,-2.10676 -0.67212,-1.08751 -2.38241,0.57899 -2.41871,2.35676 -0.0224,1.09614 1.7638,0.91642 2.48469,-0.25 z m -54,-1 c 0.33992,-0.55 0.39303,-1 0.11803,-1 -0.275,0 -0.77811,0.45 -1.11803,1 -0.33992,0.55 -0.39303,1 -0.11803,1 0.275,0 0.77811,-0.45 1.11803,-1 z m 48.03729,-3.79604 c -0.87994,-0.87994 -2.54925,1.96767 -1.83292,3.12671 0.31482,0.50939 1.00137,0.15962 1.52568,-0.77726 0.5243,-0.93688 0.66256,-1.99413 0.30724,-2.34945 z m 168.61106,0.36978 c 1.36384,-2.9933 0.34246,-7.57374 -1.68884,-7.57374 -2.40568,0 -3.99831,4.52204 -2.64146,7.5 1.43769,3.15539 2.91475,3.18054 4.3303,0.0737 z m -214.36059,-1.71045 c -0.24965,-0.74895 -0.70294,-0.29565 -1.05655,1.05655 -0.43497,1.66335 -0.30483,2.05378 0.43724,1.31171 0.5811,-0.5811 0.85979,-1.64682 0.61931,-2.36826 z m 194.22875,1.61682 c 0.9019,-1.08672 0.99738,-2.44049 0.33502,-4.75 -0.72127,-2.5149 -1.47165,-3.23011 -3.38896,-3.23011 -2.69338,0 -3.64056,2.66253 -2.5264,7.10171 0.6891,2.74557 3.64462,3.2108 5.58034,0.8784 z m -188.20964,-2.00657 c -0.30789,-0.30789 -0.86705,0.24711 -1.24258,1.23333 -0.54268,1.4252 -0.42782,1.54006 0.5598,0.5598 0.68342,-0.67834 0.99067,-1.48524 0.68278,-1.79313 z m -15.12376,-1.66104 c -0.31922,-0.79773 -0.55618,-0.56078 -0.60416,0.60417 -0.0434,1.05416 0.19292,1.64479 0.52522,1.3125 0.33229,-0.33229 0.36781,-1.1948 0.0789,-1.91667 z m -34.1087,-1.28572 c 1.41345,-2.1572 1.47597,-3.55941 0.48926,-10.97405 -0.8692,-6.53169 -0.84564,-10.07043 0.10172,-15.27678 l 1.23296,-6.77595 0.80837,5.5 c 0.4446,3.025 0.53036,10.34411 0.19057,16.26469 -0.68815,11.99047 -0.0879,13.73531 4.72515,13.73531 6.25794,0 9.98473,-8.47477 7.87414,-17.9059 -1.68473,-7.52816 -6.51943,-19.06732 -9.02267,-21.53474 -1.93038,-1.90276 -2.18401,-1.93216 -3.33538,-0.38655 -1.13674,1.52596 -1.33481,1.53224 -2.25617,0.0716 -2.41496,-3.82851 -6.44926,1.72176 -11.02044,15.16159 -2.70621,7.95657 -3.03342,15.39481 -0.86194,19.59398 2.79881,5.41231 8.35337,6.67968 11.07443,2.52682 z m 44.09226,-0.19345 c -0.36667,-0.36666 -0.66667,-0.0667 -0.66667,0.66667 0,0.73333 0.3,1.03333 0.66667,0.66667 0.36666,-0.36667 0.36666,-0.96667 0,-1.33334 z m 6.33333,1.16667 c 0,-0.275 -0.225,-0.5 -0.5,-0.5 -0.275,0 -0.5,0.225 -0.5,0.5 0,0.275 0.225,0.5 0.5,0.5 0.275,0 0.5,-0.225 0.5,-0.5 z m -14.5,-2.5 c 0.33992,-0.55 0.39303,-1 0.11803,-1 -0.275,0 -0.77811,0.45 -1.11803,1 -0.33992,0.55 -0.39303,1 -0.11803,1 0.275,0 0.77811,-0.45 1.11803,-1 z m 206.23494,-0.81502 c 2.07145,-1.31572 2.56143,-6.46462 0.82649,-8.68498 -1.55207,-1.98632 -1.57644,-1.98385 -3.5621,0.36078 -2.24786,2.65424 -2.59879,6.13976 -0.79933,7.93922 1.39747,1.39747 1.86136,1.44799 3.53494,0.38498 z m 10.08329,-3.0003 c 0.54858,-5.71509 -3.96173,-8.56765 -5.81974,-3.68072 -1.32496,3.48492 0.65431,7.68912 3.43289,7.29182 1.53527,-0.21952 2.15067,-1.15057 2.38685,-3.6111 z m -220.83354,0.006 c -0.0132,-1.45697 -0.14929,-1.48337 -0.98469,-0.19068 -1.2656,1.95837 -1.2656,3.28218 0,2.5 0.55,-0.33992 0.99311,-1.37898 0.98469,-2.30902 z m 12.01531,-13.69068 c 0,-0.275 -0.225,-0.5 -0.5,-0.5 -0.275,0 -0.5,0.225 -0.5,0.5 0,0.275 0.225,0.5 0.5,0.5 0.275,0 0.5,-0.225 0.5,-0.5 z m -2,-1 c 0,-0.275 -0.225,-0.5 -0.5,-0.5 -0.275,0 -0.5,0.225 -0.5,0.5 0,0.275 0.225,0.5 0.5,0.5 0.275,0 0.5,-0.225 0.5,-0.5 z m 10.87438,-3.26528 c 0.51961,-0.9709 0.87568,-4.0084 0.79127,-6.75 -0.1224,-3.9756 0.63069,-6.55792 3.71999,-12.75577 2.13041,-4.27408 4.33887,-8.05869 4.9077,-8.41024 1.61066,-0.99544 5.70666,4.47001 5.70666,7.61461 0,3.51259 1.81543,5.09613 4.62158,4.03124 4.31841,-1.63876 3.76971,-8.96456 -0.67144,-8.96456 -2.25925,0 -5.60654,-4.15911 -6.45452,-8.01993 -0.35346,-1.6093 -2.02314,-4.08761 -3.7104,-5.50734 -2.72339,-2.29159 -3.64121,-2.50982 -8.17648,-1.94415 -4.6215,0.57642 -5.33996,0.39085 -7.53305,-1.9457 -4.20651,-4.48164 -10.6665,-2.77762 -9.90245,2.61208 0.36495,2.57447 4.47765,3.65942 7.48723,1.97517 2.38537,-1.33492 6.33953,0.63007 6.33953,3.15039 0,1.10684 -2.63549,4.63497 -5.90343,7.90291 -5.52751,5.52751 -6.12701,5.86149 -9.41453,5.24474 -3.04443,-0.57113 -3.73649,-0.3147 -5.20681,1.92929 -2.11657,3.23029 -1.27824,7.2129 1.7185,8.16403 2.23583,0.70962 3.45603,-0.34813 8.17947,-7.0905 2.02612,-2.89215 13.08702,-10.47099 15.28184,-10.47099 4.15082,0 -1.01472,15.21849 -7.34509,21.63977 -4.78203,4.8507 -4.72374,4.71853 -3.27477,7.42597 1.37402,2.56737 7.49302,2.68435 8.8392,0.16898 z m -22.87438,-5.73472 c 0,-0.275 -0.225,-0.5 -0.5,-0.5 -0.275,0 -0.5,0.225 -0.5,0.5 0,0.275 0.225,0.5 0.5,0.5 0.275,0 0.5,-0.225 0.5,-0.5 z m -2,-0.94098 c 0,-0.24254 -0.51953,-0.76207 -1.15451,-1.15451 -0.7153,-0.44208 -0.88306,-0.27432 -0.44098,0.44098 0.71244,1.15275 1.59549,1.54767 1.59549,0.71353 z m -25.42758,-26.73786 c 9.51125,-5.10069 13.97321,-9.32266 18.42492,-17.4339 3.97532,-7.24323 4.32284,-9.38726 1.52157,-9.38726 -1.88325,0 -8.19365,-7.51602 -11.12461,-13.25 -1.33539,-2.6125 -2.68844,-4.75 -3.00678,-4.75 -0.31833,0 -1.82961,0.89067 -3.35841,1.97927 -4.82966,3.43902 -17.3602,9.02073 -20.2509,9.02073 -2.63547,0 -2.77821,0.23663 -2.77821,4.60566 0,5.12312 2.477,15.80731 4.38042,18.89434 0.67825,1.1 1.81659,4.025 2.52965,6.5 2.36161,8.19701 4.42605,8.7744 13.66235,3.82116 z m -2.5289,-7.73985 c -0.78698,-1.47049 -0.44709,-3.16407 1.45504,-7.25 1.36505,-2.93222 2.4863,-5.91174 2.49167,-6.62115 0.005,-0.70941 0.90977,-3.05398 2.00977,-5.21016 1.1,-2.15618 2,-5.73825 2,-7.96016 0,-4.69246 1.34192,-5.20433 3.38145,-1.28984 0.78805,1.5125 3.2746,4.73738 5.52568,7.16639 2.25108,2.42901 4.08171,4.90401 4.06808,5.5 -0.0554,2.41996 -7.26792,10.7276 -12.19316,14.04445 -6.01884,4.05332 -7.30852,4.29248 -8.73853,1.62047 z m -8.87954,-2.38373 c -0.63366,-0.76351 -1.44404,-2.92031 -1.80086,-4.79289 -0.35682,-1.87258 -1.20628,-4.52969 -1.88769,-5.90469 -1.93927,-3.91319 -2.88032,-11 -1.46068,-11 0.6548,0 5.0403,-1.80406 9.74555,-4.00901 4.70526,-2.20496 8.78958,-3.77444 9.07629,-3.48774 0.2867,0.2867 -0.38601,2.87826 -1.49492,5.75901 -3.49147,9.07029 -4.51662,12.07207 -6.2253,18.22851 -1.69989,6.12478 -3.72232,7.89389 -5.95239,5.20681 z m 73.88717,-28.35256 c 3.78734,-11.47576 -6.3066,-23.18991 -16.36212,-18.98845 -5.96657,2.49299 -9.85257,11.58784 -7.71657,18.05998 2.39096,7.24468 5.227,6.93432 9.06403,-0.99193 1.17511,-2.42744 2.55827,-4.67417 3.07369,-4.99272 0.51542,-0.31854 1.88194,1.59146 3.0367,4.24446 4.01047,9.21383 6.49811,9.95939 8.90427,2.66866 z m 69.59351,-15.45768 c 12.7253,-3.92166 17.41657,-7.33629 17.57163,-12.78984 0.0498,-1.75145 -0.73932,-4.01796 -1.81134,-5.20253 -3.65619,-4.04004 -11.36953,-1.48585 -30.11892,9.97356 -9.03906,5.52457 -11.36679,8.44106 -7.53603,9.44214 4.76456,1.24511 15.50059,0.54718 21.89466,-1.42333 z m -128.27224,-5.00866 c 1.89963,-2.7121 0.78818,-5.85163 -3.91424,-11.05665 -3.22077,-3.56501 -4.61533,-7.82203 -2.56243,-7.82203 0.49267,0 2.34507,2.25856 4.11646,5.01902 5.90076,9.19554 11.81792,11.55498 15.91521,6.34612 2.6199,-3.33066 2.64882,-7.3695 0.0726,-10.13477 -2.55648,-2.74406 -2.51451,-3.05138 0.34217,-2.50529 2.72766,0.52142 5.65783,-1.96267 5.65783,-4.79651 0,-1.96789 -2.22711,-4.592 -5.5033,-6.48429 -1.53042,-0.88395 -1.66163,-1.53475 -0.80644,-4 1.89628,-5.46643 -0.76391,-7.86797 -3.39027,-3.06063 -1.24133,2.27215 -0.009,8.63041 1.88376,9.72105 0.72394,0.4171 2.21625,1.43204 3.31625,2.25541 1.8619,1.39368 1.87828,1.54423 0.23727,2.18035 -2.14704,0.83226 -4.35497,-0.87613 -6.42018,-4.96763 -2.01836,-3.99862 -5.31814,-7.57283 -6.99142,-7.57283 -2.52831,0 -5.32569,3.91017 -5.32569,7.44424 0,4.3315 2.90839,7.80981 9.5,11.36159 5.28262,2.84645 6.80807,5.86368 4.10062,8.11067 -2.21169,1.83553 -4.42427,0.21651 -9.66259,-7.07042 -4.90685,-6.82585 -8.26658,-8.48483 -10.632,-5.24992 -2.68908,3.67753 -1.61209,8.16232 3.19397,13.30039 6.69627,7.15885 5.96758,10.53184 -1.2201,5.64768 -1.9877,-1.35068 -4.07916,-2.16829 -4.6477,-1.81692 -0.63354,0.39155 -0.47209,0.81848 0.41705,1.10287 0.79791,0.25521 2.92891,1.74782 4.73555,3.31692 3.92139,3.4058 5.60109,3.56775 7.58762,0.73158 z m 4.93851,-23.40849 c -4.11271,-2.46511 -6.04973,-5.46577 -4.81646,-7.46124 1.21296,-1.96261 3.47483,-0.96808 5.09682,2.24105 0.90346,1.7875 2.56846,4.2625 3.7,5.5 2.68974,2.94163 1.22203,2.83845 -3.98036,-0.27981 z m 193.67419,14.56158 c 2.65602,-5.67071 4.01488,-6.39982 4.01488,-2.15421 0,5.17262 1.64601,5.31168 12.84675,1.08528 18.67593,-7.04703 24.47957,-13.44549 23.94239,-26.39625 l -0.28914,-6.97081 -7.79398,-1.46665 c -7.17537,-1.35024 -8.24495,-1.32449 -13.47569,0.32436 -4.53913,1.43083 -7.00988,3.12383 -12.28631,8.41875 -3.63253,3.64527 -8.03053,8.60718 -9.77334,11.02646 -3.44463,4.78168 -3.14343,6.38936 1.41124,7.5325 3.76168,0.94413 2.08591,2.25491 -3.82732,2.99372 -7.46491,0.93268 -8.69713,1.91141 -5.25006,4.17001 1.52258,0.99763 3.40351,3.33409 4.17984,5.19212 1.72728,4.13395 2.94577,3.40772 6.30074,-3.75528 z m -94.68812,-1.5114 c 1.94768,-0.81379 7.74013,-2.40068 12.87212,-3.52641 11.20486,-2.45785 16.56681,-4.44269 19.58088,-7.24824 4.85409,-4.51829 1.18231,-12.74572 -5.68822,-12.74572 -4.30995,0 -15.75287,5.36141 -20.74607,9.72025 -4.59847,4.01426 -10.2947,11.49229 -10.306,13.52975 -0.0117,2.11423 -0.11075,2.10799 4.28729,0.27037 z m 59.31095,-1.27037 c 1.91415,-2.52158 1.80377,-8.25 -0.15898,-8.25 -1.77455,0 -4.84097,6.53609 -4.04255,8.61673 0.72853,1.89853 2.60638,1.73462 4.20153,-0.36673 z m -112.75119,-2.14031 c 0.78202,-0.49552 0.95033,-1.11088 0.39732,-1.45266 -0.52769,-0.32613 -1.81323,0.0533 -2.85676,0.8432 -1.45908,1.10444 -1.55086,1.43997 -0.39732,1.45265 0.825,0.009 2.11054,-0.37036 2.85676,-0.84319 z m -11.39947,-1.04059 c 1.07622,-1.74136 -1.64179,-2.31317 -3.26754,-0.68742 -1.4911,1.49109 -1.44888,1.61832 0.53695,1.61832 1.1854,0 2.41416,-0.41891 2.73059,-0.9309 z m 12.29271,-4.70568 c 2.37612,-2.61367 2.98968,-6.78824 1.16359,-7.91682 -1.24882,-0.77182 -7.61633,5.04147 -8.47073,7.73344 -1.4276,4.49795 3.27738,4.61602 7.30714,0.18338 z m 8.79545,1.18203 c 2.60801,-2.608 3.21456,-5.9577 1.29376,-7.14482 -1.36785,-0.84538 -7.83921,5.82863 -7.83921,8.08468 0,2.34695 3.80501,1.80059 6.54545,-0.93986 z m -26.1985,-2.41283 c 1.58482,-0.62365 1.64184,-0.89703 0.40179,-1.92618 -1.15474,-0.95835 -1.80824,-0.79817 -3.25194,0.79709 -1.93542,2.13862 -0.82903,2.57692 2.85015,1.12909 z m 11.87558,-5.2013 c 2.86787,-2.86788 2.95928,-3.17808 1.39688,-4.74049 -1.50367,-1.50366 -1.93582,-1.52189 -4.29683,-0.18131 -3.32142,1.8859 -4.81833,4.25618 -4.01311,6.35456 0.95713,2.49424 3.51649,1.9638 6.91306,-1.43276 z m -13.29642,-3.34229 c 0.75526,-0.91003 0.81654,-1.63004 0.17262,-2.02801 -0.54911,-0.33937 -1.48679,0.29557 -2.08374,1.41097 -1.23454,2.30676 0.14037,2.75067 1.91112,0.61704 z m 37.59335,-2.04098 c 3.75286,-3.97919 7.48054,-11.16166 7.48054,-14.41343 0,-3.81125 -2.96805,-8.22332 -6.5343,-9.7134 -7.83333,-3.27297 -15.67307,-0.71867 -18.94284,6.17185 -1.70056,3.58367 -1.71146,4.01319 -0.16996,6.6991 0.9059,1.57845 1.6471,3.98802 1.6471,5.35461 0,4.29848 1.75057,6.35322 5.41274,6.35322 1.8383,0 3.90257,0.675 4.58726,1.5 1.82817,2.20281 2.9051,1.88038 6.51946,-1.95195 z m -24.25711,-3.77701 c 1.30659,-3.74851 -3.97003,-5.25055 -7.43361,-2.11605 -2.29287,2.07502 -2.33263,3.96364 -0.10963,5.20769 1.92437,1.07693 6.78455,-0.91504 7.54324,-3.09164 z M 331.948,325.12773 c 0.40823,-2.14162 -5.93727,-5.14504 -8.89014,-4.20783 -2.77667,0.88128 -2.38214,2.22539 1.3234,4.50874 3.79732,2.33989 7.08831,2.20902 7.56674,-0.30091 z m -120.27562,-0.79766 c 1.07627,-1.74144 -0.14952,-2.11024 -1.52106,-0.45764 -0.78875,0.95039 -0.86462,1.52417 -0.20152,1.52417 0.58488,0 1.36004,-0.47994 1.72258,-1.06653 z m 9.76141,-4.68347 c 4.51285,-3.42394 4.88921,-6.25 0.83233,-6.25 -3.41166,0 -8.13486,3.42905 -8.13486,5.90591 0,3.93198 2.4231,4.04615 7.30253,0.34409 z m 64.19747,-0.26139 c 29.59511,-2.10091 51.34592,-7.30278 71,-16.98017 13.78944,-6.78973 20.67012,-11.71884 32.23217,-23.09016 10.90358,-10.7237 16.68049,-18.52052 21.79696,-29.41828 4.7307,-10.07611 6.13884,-15.07771 7.07214,-25.11972 1.14941,-12.36712 -3.89202,-25.94529 -12.42047,-33.45234 -6.85934,-6.03783 -13.77944,-8.26749 -25.6808,-8.27438 -16.24364,-0.009 -29.44511,5.45733 -48.05545,19.89978 -10.69689,8.30126 -25.70053,24.21413 -32.83081,34.82036 -13.66202,20.32215 -25.62699,48.23524 -32.95308,76.8763 l -1.4708,5.75 3.65507,-0.009 c 2.01029,-0.005 9.95507,-0.456 17.65507,-1.00261 z M 190.33378,306.1466 c 1.84618,-1.45618 8.79748,-14.41515 8.79748,-16.4007 0,-2.6347 -2.82183,-1.29915 -3.92177,1.85613 -0.61458,1.76299 -1.88693,4.35049 -2.82745,5.75 -1.694,2.52071 -1.7196,2.4555 -2.73041,-6.95543 -0.57381,-5.34237 -1.45802,-9.39281 -2.02037,-9.25508 -0.55353,0.13556 -1.12779,4.48869 -1.28621,9.75 -0.15742,5.22779 -0.65158,9.50508 -1.09813,9.50508 -0.77922,0 -2.97935,-4.44452 -5.07396,-10.25 -0.54571,-1.5125 -1.45334,-2.75 -2.01695,-2.75 -3.09903,0 1.55106,14.73457 5.67344,17.97724 2.98164,2.34535 4.31041,2.50322 6.50433,0.77276 z m 226.79748,-1.25 c 0,-0.275 -0.225,-0.5 -0.5,-0.5 -0.275,0 -0.5,0.225 -0.5,0.5 0,0.275 0.225,0.5 0.5,0.5 0.275,0 0.5,-0.225 0.5,-0.5 z m -2.33683,-3 c 0.18089,-0.55 -0.58082,-2.49229 -1.6927,-4.3162 -1.47372,-2.41749 -2.62166,-3.23051 -4.23582,-3 -3.16803,0.45241 -3.29545,3.34631 -0.2801,6.36165 2.51874,2.51875 5.54131,2.98346 6.20862,0.95455 z m -10.66317,0 c 0,-0.275 -0.225,-0.5 -0.5,-0.5 -0.275,0 -0.5,0.225 -0.5,0.5 0,0.275 0.225,0.5 0.5,0.5 0.275,0 0.5,-0.225 0.5,-0.5 z m 17.66667,-1.16667 c -0.36667,-0.36666 -0.66667,-0.0667 -0.66667,0.66667 0,0.73333 0.3,1.03333 0.66667,0.66667 0.36666,-0.36667 0.36666,-0.96667 0,-1.33334 z m -18.49787,-4.83333 c -0.58487,-5.29787 -5.14902,-7.32108 -6.80143,-3.01496 -0.93078,2.42557 2.40184,6.68834 4.94583,6.32623 1.7853,-0.25412 2.12599,-0.86207 1.8556,-3.31127 z m 17.8312,0.22251 c 0,-2.8591 -2.63725,-6.72251 -4.58893,-6.72251 -0.81153,0 -1.87873,1.0125 -2.37155,2.25 -0.71651,1.79923 -0.39837,2.70077 1.58799,4.5 3.20156,2.89994 5.37249,2.88883 5.37249,-0.0275 z M 410.58778,284.6466 c -0.77914,-7.48451 -1.04026,-8.26112 -2.76554,-8.22521 -2.4236,0.0505 -10.81923,7.07074 -10.49145,8.77279 0.37325,1.9381 8.16825,6.05568 11.63006,6.14339 2.28244,0.0578 2.31537,-0.0776 1.62693,-6.69097 z m 9.83693,1.12322 c 0.34473,-0.34474 -0.0418,-1.91974 -0.85901,-3.5 -1.67397,-3.2371 -5.79711,-3.97645 -6.85156,-1.2286 -1.22378,3.18911 5.26855,7.17061 7.71057,4.7286 z M 245.26638,275.00961 c 2.95068,-2.41284 9.10671,-6.28352 13.68005,-8.6015 7.41264,-3.75706 9.0168,-5.23897 6.1015,-5.63651 -0.50417,-0.0688 -1.25417,-0.19468 -1.66667,-0.27984 -0.4125,-0.0852 1.27453,-1.90439 3.74895,-4.04272 4.31144,-3.72584 5.00692,-6.78622 0.96914,-4.26459 -2.10119,1.31222 -4.96809,1.62435 -4.96809,0.54089 0,-0.36919 0.71444,-1.46071 1.58765,-2.4256 0.87321,-0.96488 1.43571,-2.52928 1.25,-3.47644 -0.29133,-1.48589 -0.78345,-1.34673 -3.58765,1.01449 -3.25971,2.74478 -3.64855,2.64984 -3.28357,-0.80172 0.39063,-3.69414 -2.50144,-0.94466 -5.96643,5.67228 -1.925,3.67608 -6.5375,10.08372 -10.25,14.2392 -6.21543,6.95705 -7.81349,10.05223 -6.08333,11.78238 1.3721,1.37211 3.24951,0.54733 8.46845,-3.72032 z m 212.28106,-0.52039 c 2.91374,-3.21965 5.58382,-2.74591 5.58382,0.99071 0,4.59703 2.38576,3.09356 3.06987,-1.93459 0.31343,-2.30366 1.10093,-4.71954 1.75,-5.36861 1.72708,-1.72708 1.44038,-5.24405 -0.56987,-6.99055 -3.33747,-2.89959 -12.16314,-6.73914 -12.86825,-5.59825 -0.36816,0.5957 0.3156,1.82608 1.51948,2.73417 2.85246,2.15162 1.78147,3.0745 -3.5679,3.0745 -3.18518,0 -4.33333,0.39744 -4.33333,1.5 0,1.11515 1.17593,1.5 4.58333,1.5 5.24465,0 5.74781,2.0435 0.75461,3.06472 -3.59419,0.73509 -5.33794,1.71324 -5.33794,2.9943 0,1.27423 3.66469,1.1908 6.15139,-0.14004 3.51463,-1.88098 3.47447,0.12174 -0.0603,3.00668 -1.99038,1.62446 -3.10091,3.24944 -2.68292,3.92576 0.85515,1.38365 3.25743,0.28055 6.00801,-2.7588 z M 222.3093,251.2668 c 3.12293,-4.74639 8.00028,-10.58793 10.83856,-12.98121 2.83828,-2.39327 5.61029,-5.19182 6.16001,-6.21899 0.9077,-1.69606 0.70499,-1.80291 -2.20705,-1.16332 -1.7636,0.38736 -3.02629,0.31932 -2.80597,-0.1512 0.22032,-0.47051 1.02174,-2.09488 1.78094,-3.60971 1.99825,-3.98712 0.5163,-4.55732 -3.04828,-1.17287 l -3.08289,2.9271 0.34332,-3.90554 c 0.45706,-5.19947 -1.62009,-5.78437 -3.18284,-0.89625 -1.67802,5.24867 -2.8009,6.21846 -4.51364,3.89829 -1.54418,-2.09181 -1.88246,-1.62378 -2.82127,3.9035 -1.3554,7.98001 -2.80497,12.91012 -5.62374,19.12677 -3.33386,7.35267 -3.27527,9.69117 0.23034,9.19337 1.56735,-0.22257 3.98502,-2.95033 7.93251,-8.94994 z m 265.0656,5.72187 c 1.27366,-1.87436 4.46314,-5.18242 7.08772,-7.35125 10.85753,-8.97214 9.96614,-11.19895 -3.56765,-8.91243 -5.15897,0.8716 -10.35957,1.32855 -11.55688,1.01545 -1.19732,-0.31311 -2.97117,-0.23162 -3.94189,0.18108 -1.53504,0.65263 -1.44895,0.83373 0.66092,1.39031 3.62208,0.95549 3.67907,2.97793 0.11889,4.21902 -2.97674,1.03769 -3.81857,3.77791 -0.91975,2.99384 5.09949,-1.37929 5.38416,-1.28374 2.625,0.88108 -1.5125,1.18671 -2.75,2.57011 -2.75,3.07424 0,1.45463 2.17625,1.06706 4.17739,-0.74395 1.00918,-0.91329 2.16891,-1.3265 2.57717,-0.91823 0.70697,0.70696 -1.78656,3.05582 -4.14637,3.9058 -0.6095,0.21954 -0.75022,0.78123 -0.31271,1.24821 0.43751,0.46698 1.66891,0.30358 2.73643,-0.36309 2.87677,-1.79658 4.19342,-1.49747 3.46809,0.78785 -1.00477,3.16575 1.19891,2.33698 3.74364,-1.40793 z M 451.84075,235.1466 c 3.01516,-7.61948 3.10585,-8.03985 2.23798,-10.37391 -0.53513,-1.43917 -2.02416,-2.35188 -4.6186,-2.83098 -2.10588,-0.38889 -4.8396,-1.6474 -6.07493,-2.7967 -2.73375,-2.54336 -4.27839,-1.5379 -1.81651,1.18245 2.53762,2.80404 1.13967,4.06914 -4.49645,4.06914 -3.72532,0 -4.94098,0.36906 -4.94098,1.5 0,1.08333 1.11111,1.5 4,1.5 4.73027,0 5.21476,1.38088 1,2.85016 -1.65,0.57519 -3,1.74421 -3,2.59782 0,1.95523 2.03518,1.99265 4.55887,0.0838 2.10292,-1.59057 5.44113,-2.03221 5.44113,-0.71986 0,0.44657 -1.35,1.81004 -3,3.02994 -3.04082,2.24818 -3.91096,4.15812 -1.89436,4.15812 0.60811,0 2.44263,-1.125 4.07673,-2.5 3.67755,-3.09445 5.01458,-3.1644 4.7785,-0.25 -0.45905,5.66708 1.17051,5.01502 3.74862,-1.5 z m -180.06918,2.94303 c 0.38116,-0.38117 -0.28198,-0.69303 -1.47364,-0.69303 -2.90941,0 -2.74181,-1.41692 0.33333,-2.81805 1.375,-0.62649 2.5,-1.59872 2.5,-2.16051 0,-1.36944 -1.32932,-1.29212 -2.78333,0.16189 -1.74219,1.74219 -2.83864,0.0422 -1.42882,-2.21524 1.56987,-2.51375 1.52884,-3.02685 -0.18931,-2.36753 -0.7708,0.29578 -1.73429,1.51916 -2.14109,2.71861 -0.69745,2.05645 -0.76389,2.02399 -1.16496,-0.56917 -0.42421,-2.74274 -2.21501,-3.87195 -2.37881,-1.5 -0.0475,0.6875 -0.21428,3.36294 -0.37066,5.94543 l -0.28433,4.69542 4.3443,-0.2524 c 2.38936,-0.13882 4.65615,-0.56426 5.03732,-0.94542 z m 203.84666,-3.65196 c 0.3097,-0.9758 4.37683,-4.31216 9.03806,-7.41415 4.66123,-3.10199 8.47497,-6.29165 8.47497,-7.08814 0,-1.83481 -4.69057,-2.70947 -12.5,-2.33089 -3.3,0.15998 -7.9125,-0.0859 -10.25,-0.54641 -4.45371,-0.87741 -6.15161,0.6002 -2.14934,1.87047 2.47137,0.78438 1.41638,2.15814 -2.02233,2.63337 -1.33192,0.18408 -2.61667,0.92644 -2.85501,1.64969 -0.33027,1.00227 0.42403,1.15417 3.17168,0.63871 2.38306,-0.44707 3.605,-0.29962 3.605,0.43499 0,0.61121 -1.35,1.11129 -3,1.11129 -2.0391,0 -3,0.49497 -3,1.54531 0,1.22448 0.72668,1.40899 3.5,0.88871 2.29424,-0.4304 3.5,-0.27376 3.5,0.45469 0,0.61121 -1.07686,1.11129 -2.39301,1.11129 -1.31616,0 -2.6624,0.70201 -2.99165,1.56002 -0.50934,1.32733 0.0713,1.45955 3.89301,0.88646 4.65034,-0.69736 5.76779,0.24953 3.00266,2.54438 -0.81894,0.67967 -1.25453,1.61511 -0.96797,2.07877 0.78818,1.27532 3.30641,-0.0199 3.94393,-2.02856 z M 250.20856,223.77653 c 5.43872,-1.77892 7.94589,-3.99984 3.57132,-3.16359 -2.61495,0.49988 -3.59077,-0.51602 -1.64862,-1.71634 0.55,-0.33992 1,-1.33622 1,-2.214 0,-1.38996 -0.25816,-1.36234 -2,0.214 -2.00737,1.81665 -2.38256,1.49673 -2.0523,-1.75 0.31211,-3.06824 -1.76092,-1.87687 -2.48709,1.42933 l -0.69829,3.17933 -1.3614,-2.42933 c -1.26731,-2.26145 -1.33516,-2.08379 -0.98188,2.57067 0.20872,2.75 0.42483,5.1125 0.48023,5.25 0.19201,0.47654 1.24897,0.24214 6.17803,-1.37007 z m 57.48157,-5.81261 c 3.54628,-2.61739 0.30508,-4.0573 -9.35887,-4.15771 -10.02688,-0.10419 -14.59125,-1.70901 -18.67957,-6.5677 -2.2155,-2.63297 -2.61281,-3.88523 -2.14579,-6.76314 0.79896,-4.92342 3.63825,-8.34707 8.22087,-9.91284 6.98837,-2.38775 14.08445,-0.55427 25.62829,6.62182 2.57539,1.60096 2.82058,1.59467 4.5,-0.11548 1.70428,-1.73545 1.65472,-1.91087 -1.2238,-4.33203 -5.03623,-4.23604 -14.61784,-8.2787 -21.26927,-8.97391 -10.80235,-1.12907 -19.5058,4.14434 -22.31501,13.52063 -3.85686,12.87304 7.03226,21.88336 26.64315,22.04614 5.51516,0.0458 8.67157,-0.38531 10,-1.36578 z m -22.55887,-2.56732 c 0,-0.55 0.675,-1 1.5,-1 0.825,0 1.5,0.45 1.5,1 0,0.55 -0.675,1 -1.5,1 -0.825,0 -1.5,-0.45 -1.5,-1 z m -5.5,-2 c -0.33992,-0.55 0.0835,-1 0.94098,-1 0.85746,0 1.55902,0.45 1.55902,1 0,0.55 -0.42344,1 -0.94098,1 -0.51754,0 -1.2191,-0.45 -1.55902,-1 z m -3.5,-4 c 0,-0.55 0.45,-1 1,-1 0.55,0 1,0.45 1,1 0,0.55 -0.45,1 -1,1 -0.55,0 -1,-0.45 -1,-1 z m -3,-4.5 c 0,-0.825 0.45,-1.5 1,-1.5 0.55,0 1,0.675 1,1.5 0,0.825 -0.45,1.5 -1,1.5 -0.55,0 -1,-0.675 -1,-1.5 z m 5.55279,-14.41459 c -0.32198,-0.52097 -0.15917,-1.21065 0.3618,-1.53262 0.52097,-0.32198 1.21065,-0.15917 1.53262,0.3618 0.32198,0.52097 0.15917,1.21065 -0.3618,1.53262 -0.52097,0.32198 -1.21065,0.15917 -1.53262,-0.3618 z m 5.44721,-3.08541 c 0,-0.55 0.45,-1 1,-1 0.55,0 1,0.45 1,1 0,0.55 -0.45,1 -1,1 -0.55,0 -1,-0.45 -1,-1 z m 11.5,0 c -0.33992,-0.55 0.0835,-1 0.94098,-1 0.85746,0 1.55902,0.45 1.55902,1 0,0.55 -0.42344,1 -0.94098,1 -0.51754,0 -1.2191,-0.45 -1.55902,-1 z m -6.5,-1 c 0,-0.55 0.675,-1 1.5,-1 0.825,0 1.5,0.45 1.5,1 0,0.55 -0.675,1 -1.5,1 -0.825,0 -1.5,-0.45 -1.5,-1 z m 160.8123,25.4175 5.3123,-0.66351 -2.8123,-1.70746 c -1.83041,-1.11131 -4.12412,-1.55358 -6.56956,-1.26674 -2.55723,0.29996 -4.63326,-0.14065 -6.5,-1.37951 -1.50851,-1.00112 -4.20214,-1.87819 -5.98586,-1.94904 -4.21277,-0.16732 -7.00207,-2.78137 -8.39126,-7.86404 -2.18436,-7.99198 -4.22419,-13.11552 -6.03233,-15.15165 -1.00831,-1.13545 -1.84018,-2.93545 -1.8486,-4 -0.008,-1.06455 -0.49209,-2.61055 -1.07482,-3.43555 -0.78415,-1.11015 -0.89086,-0.48551 -0.41061,2.40336 0.56853,3.41987 0.32234,4.16376 -1.98757,6.00562 -3.01153,2.40131 -2.67554,4.73971 0.91615,6.37619 1.80546,0.82262 2.70904,2.65251 4.08767,8.27813 1.41398,5.76987 2.53258,7.98479 5.56298,11.01519 4.80391,4.80391 9.31698,5.38948 25.73381,3.33901 z m -0.92917,-7.04819 c 7.28202,-5.10053 6.37363,-20.42464 -1.62717,-27.44944 -3.06899,-2.69461 -4.13239,-3.06565 -7.49385,-2.61479 -5.05381,0.67786 -6.8145,2.36306 -11.21173,10.73101 -3.99909,7.61028 -3.99904,10.10873 2.8e-4,14.42407 2.93525,3.16719 6.21019,3.29514 7.41818,0.28984 0.63527,-1.58046 0.92325,-1.7557 0.96777,-0.58889 0.0786,2.05941 5.61195,6.83889 7.91761,6.83889 0.93542,0 2.74843,-0.73381 4.02891,-1.63069 z m -4.85523,-7.83569 c -0.66934,-0.80651 -0.98496,-2.04401 -0.70139,-2.75 0.33768,-0.84067 0.54284,-0.70849 0.59454,0.38305 0.0991,2.09142 2.04358,2.83843 4.32895,1.66302 2.74714,-1.4129 2.38531,-8.88422 -0.56445,-11.65538 -1.27295,-1.19587 -3.21951,-2.17431 -4.32569,-2.17431 -2.03856,0 -5.65118,3.25773 -6.65363,6 -0.46081,1.26058 -0.56094,1.2422 -0.62728,-0.11514 -0.0434,-0.88833 0.85371,-2.80083 1.99363,-4.25 4.68682,-5.95833 12.92742,-1.773 12.92742,6.56574 0,2.16199 -0.46583,4.8013 -1.03518,5.86514 -1.2264,2.29154 -4.22715,2.52802 -5.93692,0.46788 z m -9.0279,-5.53362 c 0,-0.73333 0.3,-1.03333 0.66667,-0.66667 0.36666,0.36667 0.36666,0.96667 0,1.33334 -0.36667,0.36666 -0.66667,0.0667 -0.66667,-0.66667 z m 56,-0.44098 c 0,-0.24254 -0.45,-0.7191 -1,-1.05902 -0.55,-0.33992 -1,-0.14148 -1,0.44098 0,0.58246 0.45,1.05902 1,1.05902 0.55,0 1,-0.19844 1,-0.44098 z m -79,-1.05902 c 0,-0.275 -0.225,-0.5 -0.5,-0.5 -0.275,0 -0.5,0.225 -0.5,0.5 0,0.275 0.225,0.5 0.5,0.5 0.275,0 0.5,-0.225 0.5,-0.5 z m 75.3076,-2.95046 c 0.79775,-0.79775 1.74279,-3.3999 2.10009,-5.78257 0.35731,-2.38266 1.59343,-5.88405 2.74695,-7.78085 1.15351,-1.89681 2.69504,-5.14291 3.42561,-7.21356 l 1.3283,-3.76483 -2.89168,2.13792 c -1.59043,1.17585 -3.41105,3.39178 -4.04583,4.92428 -2.83755,6.85044 -6.29038,3.29054 -8.41652,-8.67751 -0.77115,-4.34083 -1.82045,-9.00393 -2.33177,-10.36244 -0.85556,-2.27311 -0.98302,-2.11368 -1.59887,2 -0.36806,2.45851 -0.20901,6.89394 0.35346,9.85651 0.56246,2.96257 1.02266,7.12507 1.02266,9.25 0,3.21911 -0.33945,3.86351 -2.03518,3.86351 -1.11935,0 -3.03185,-0.62146 -4.25,-1.38103 -1.21815,-0.75957 -3.5526,-1.69331 -5.18767,-2.07499 l -2.97284,-0.69395 1.97284,2.22118 c 1.08507,1.22165 4.33535,3.74422 7.22285,5.60572 2.8875,1.86149 5.25,3.73585 5.25,4.16524 0,1.36361 4.02204,5.15783 5.46753,5.15783 0.76429,0 2.04232,-0.6527 2.84007,-1.45046 z m -69.3076,-14.04954 c 0,-0.275 -0.225,-0.5 -0.5,-0.5 -0.275,0 -0.5,0.225 -0.5,0.5 0,0.275 0.225,0.5 0.5,0.5 0.275,0 0.5,-0.225 0.5,-0.5 z m -3,-1 c 0,-0.275 -0.225,-0.5 -0.5,-0.5 -0.275,0 -0.5,0.225 -0.5,0.5 0,0.275 0.225,0.5 0.5,0.5 0.275,0 0.5,-0.225 0.5,-0.5 z m -31.88237,-1.51603 c 7.99791,-2.2216 14.88237,-9.40707 14.88237,-15.53308 0,-2.644 -0.64096,-3.63151 -3.4222,-5.27249 -1.88221,-1.11053 -3.96554,-3.06748 -4.62961,-4.34877 -1.09409,-2.11098 -0.92381,-2.06367 1.81428,0.50406 3.7699,3.53536 7.18488,3.28366 9.0735,-0.66875 2.79635,-5.8521 -1.62227,-15.21684 -6.81991,-14.45399 -2.55198,0.37455 -2.64006,0.25316 -1.67375,-2.30687 1.40759,-3.72913 -1.17509,-7.47409 -6.1908,-8.97683 -7.17264,-2.14898 -11.53197,2.83308 -8.60616,9.83554 0.84272,2.01691 2.07727,4.0135 2.74344,4.43685 1.71941,1.0927 6.50611,0.98049 8.72012,-0.20441 1.76785,-0.94612 1.79355,-0.84397 0.44042,1.75 -0.79035,1.51512 -1.4683,3.42977 -1.50656,4.25477 -0.0399,0.86063 -0.45503,0.54095 -0.97393,-0.75 -0.49742,-1.2375 -1.63838,-2.25 -2.53549,-2.25 -0.8971,0 -3.19531,-0.74227 -5.10713,-1.64949 -3.22983,-1.53265 -3.72105,-1.53265 -6.93506,0 -1.90246,0.90722 -4.27252,1.64949 -5.2668,1.64949 -1.25476,0 -2.18972,1.27478 -3.05629,4.16714 -1.45409,4.85331 -6.00738,9.83286 -8.99115,9.83286 -1.71249,0 -2.07692,0.62284 -2.07692,3.54966 0,12.03926 15.497,20.49552 30.11763,16.43431 z m 4.88237,-28.48397 c 0,-0.275 0.225,-0.5 0.5,-0.5 0.275,0 0.5,0.225 0.5,0.5 0,0.275 -0.225,0.5 -0.5,0.5 -0.275,0 -0.5,-0.225 -0.5,-0.5 z m 25,25 c 0,-0.275 -0.225,-0.5 -0.5,-0.5 -0.275,0 -0.5,0.225 -0.5,0.5 0,0.275 0.225,0.5 0.5,0.5 0.275,0 0.5,-0.225 0.5,-0.5 z m 22.42089,-14.33447 c -0.40055,-0.91604 -0.63344,-2.43756 -0.51754,-3.38116 0.39082,-3.18194 -1.88573,-13.10741 -3.38682,-14.7661 -0.92631,-1.02357 -1.13496,-1.99984 -0.552,-2.5828 1.47857,-1.47857 -0.59122,-8.71301 -3.06656,-10.71834 -2.45497,-1.98884 -3.77195,-1.86402 -5.26234,0.49874 -0.77488,1.22843 -0.26272,2.44482 2.21994,5.27241 2.10778,2.40064 3.02723,4.30561 2.65071,5.49192 -0.76929,2.42383 2.29829,15.68151 4.02882,17.41205 0.75332,0.75331 1.1468,1.59251 0.87442,1.8649 -0.27238,0.27238 0.31155,2.20082 1.29762,4.28542 1.77817,3.75912 1.79552,3.76764 2.11743,1.03933 0.17852,-1.51296 -0.003,-3.50033 -0.40368,-4.41637 z m 10.53892,-1.38534 c -0.42874,-2.34458 -0.55284,-4.62966 -0.27578,-5.07796 0.82013,-1.32699 -2.79388,-14.66922 -4.41164,-16.28699 -1.02427,-1.02426 -1.28917,-2.49095 -0.8492,-4.70193 1.16853,-5.87232 1.0899,-6.94288 -0.58937,-8.02432 -1.2352,-0.79546 -2.10351,-0.71005 -3.35693,0.33019 -2.1269,1.76517 -1.5551,10.71925 0.79422,12.43711 1.0049,0.7348 1.35178,2.06558 1.00766,3.86577 -0.53384,2.7926 1.98843,10.95312 4.2276,13.67794 0.67796,0.825 1.0516,1.99434 0.8303,2.59852 -0.59409,1.62203 1.5162,6.61045 2.53112,5.98319 0.47935,-0.29625 0.52075,-2.45693 0.092,-4.80152 z m -85.88289,-5.70327 c 3.12074,-3.12073 3.84083,-7.49357 1.84739,-11.21836 -0.96945,-1.81141 -0.87716,-1.9037 0.93425,-0.93425 4.95049,2.64942 10.47268,0.58842 11.71802,-4.37341 1.84235,-7.34051 -2.39326,-11.75659 -9.1404,-9.52984 -4.50096,1.48545 -6.87745,5.02259 -6.0739,9.04033 0.39709,1.98548 0.24667,2.81496 -0.43417,2.39418 -2.16014,-1.33504 -5.5726,0.5757 -7.22804,4.04719 -2.11718,4.43977 -2.16734,8.3851 -0.14337,11.27473 2.12161,3.02901 5.02976,2.78989 8.52022,-0.70057 z m 63.29916,-6.27742 c -0.27057,-0.4378 0.20912,-1.79691 1.06599,-3.02025 2.02412,-2.88985 2.01887,-7.66514 -0.009,-8.44342 -3.23458,-1.24122 -4.16769,1.79798 -3.12068,10.16417 0.61559,4.91882 0.68067,5.05984 1.63723,3.54775 0.50529,-0.79874 0.69733,-1.81045 0.42675,-2.24825 z m 26.20558,-6.61833 c -0.79755,-1.47464 -1.71001,-3.90568 -2.02768,-5.40231 -0.66971,-3.15512 -4.19388,-5.53896 -5.8057,-3.92714 -1.40413,1.40413 0.90059,6.90206 3.19915,7.6316 0.95279,0.3024 2.32222,1.65201 3.04317,2.99912 0.72096,1.34712 1.70015,2.20869 2.17599,1.9146 0.47584,-0.29408 0.21262,-1.74123 -0.58493,-3.21587 z M 330.14613,436.91451 c -0.89654,-1.08026 -1.03652,-3.92705 -0.51629,-10.5 0.68117,-8.60641 0.62191,-9.01791 -1.2988,-9.01791 -1.56211,0 -1.88769,-0.47744 -1.45469,-2.13323 0.30682,-1.17328 1.33484,-2.33642 2.28448,-2.58475 0.94965,-0.24834 2.22184,-1.53839 2.82709,-2.86677 1.45006,-3.18254 6.67416,-3.55313 5.85359,-0.41525 -0.43441,1.66121 -0.0307,2 2.38337,2 2.43347,0 2.90638,0.40678 2.90638,2.5 0,2.08406 -0.47595,2.5 -2.86071,2.5 -2.70427,0 -2.89519,0.2871 -3.49131,5.25 -0.34683,2.8875 -0.63451,6.7125 -0.63929,8.5 -0.008,2.93876 0.2756,3.25 2.95993,3.25 2.40655,0 2.84636,0.33133 2.32294,1.75 -0.35512,0.9625 -1.1285,2.08061 -1.71862,2.48469 -1.89244,1.29583 -8.28566,0.81639 -9.55807,-0.71678 z m 28.93534,-1.76791 c -0.0274,-0.1375 -0.15849,-8.73993 -0.29135,-19.1165 l -0.24157,-18.86651 2.36297,-1.07664 c 1.84447,-0.84039 2.56332,-0.75997 3.27604,0.36651 0.80064,1.26543 1.46396,12.48781 1.011,17.10455 -0.31617,3.22254 1.78587,2.81353 2.90069,-0.56442 1.35846,-4.11618 5.60386,-8.59699 8.14532,-8.59699 3.01262,0 4.68767,4.00111 5.32716,12.72475 0.3316,4.52361 0.84403,8.85308 1.13873,9.62106 0.72821,1.89766 -2.21304,4.65419 -4.96607,4.65419 -2.13618,0 -2.25551,-0.42049 -2.48298,-8.75 -0.25306,-9.2667 -1.17799,-11.65144 -3.57101,-9.20714 -2.39371,2.44501 -5.55914,11.77603 -5.55914,16.38717 0,3.0496 -0.47439,4.53803 -1.58179,4.96298 -1.55589,0.59705 -5.37059,0.8461 -5.468,0.35699 z m 43.51507,-14.70152 c -3.7932,-1.53754 -4.96928,-4.05427 -4.88446,-10.45241 0.0458,-3.45693 0.76232,-7.39484 1.65499,-9.09607 4.44662,-8.47425 14.24867,-12.10643 19.22954,-7.12556 2.94536,2.94536 4.23114,10.35751 2.68937,15.50347 -1.32017,4.40636 -6.36877,9.42484 -11.05394,10.98798 -3.89738,1.30031 -4.82336,1.32245 -7.6355,0.18259 z m 11.08017,-7.50303 c 4.6726,-4.67259 2.50288,-15.54545 -3.10215,-15.54545 -5.55806,0 -8.8349,7.73368 -6.07529,14.33834 1.87006,4.47569 5.4394,4.94516 9.17744,1.20711 z m 26.95531,-8.73425 c -0.26589,-0.72116 -1.12784,-3.3362 -1.91544,-5.8112 -0.78761,-2.475 -3.30775,-9.675 -5.60032,-16 -2.29256,-6.325 -4.37138,-12.175 -4.61958,-13 -0.51435,-1.70966 3.48359,-4.59906 4.61049,-3.3321 0.99225,1.11557 11.94142,28.72114 13.43264,33.86701 0.44458,1.53417 -0.15027,2.47202 -2.41733,3.8112 -2.35789,1.39284 -3.11138,1.49324 -3.49046,0.46509 z m 20.3993,-18.47838 c -4.85246,-3.01224 -6.82641,-14.707 -3.55136,-21.04023 5.85679,-11.32579 17.53629,-10.86086 20.68251,0.82331 2.24629,8.34208 -1.08328,16.79118 -8.03324,20.38515 -3.67211,1.89892 -5.83226,1.85898 -9.09791,-0.16823 z m 11.3277,-7.68932 c 2.04503,-2.5371 2.16351,-4.18 0.63064,-8.74428 -2.23321,-6.64956 -6.19043,-8.71868 -10.02966,-5.24423 -1.2388,1.1211 -1.82874,3.06104 -1.82874,6.01357 0,9.51037 6.35292,14.02278 11.22776,7.97494 z m 28.78718,-10.59734 c -2.83474,-2.17804 -2.84564,-2.15681 2.35312,-4.58181 7.79469,-3.63588 8.773,-9.27742 2.841,-16.38299 l -2.70906,-3.24502 v 6.47684 c 0,7.14559 -1.97755,10.68682 -5.9679,10.68682 -5.05185,0 -10.53454,-9.48704 -10.52836,-18.21788 0.004,-5.63252 1.37699,-8.55465 6.94559,-14.78212 l 3.12969,-3.5 2.09602,2.82155 c 1.15281,1.55185 4.76006,6.01011 8.01613,9.90725 7.01856,8.40043 8.80883,11.6057 8.80883,15.7712 0,4.30145 -2.07737,7.89483 -7.40088,12.80187 -2.50494,2.30897 -4.67699,4.18812 -4.82678,4.17589 -0.14979,-0.0122 -1.39062,-0.88145 -2.7574,-1.9316 z m -1.64523,-17.29616 c 1.70265,-6.35339 -0.64575,-16.75 -3.7835,-16.75 -2.1485,0 -3.9212,3.81812 -3.75399,8.08551 0.12806,3.26828 1.09505,5.95215 3.48207,9.66449 1.27338,1.98039 3.39705,1.45673 4.05542,-1 z m 32.58102,-19.79519 c -0.7979,-3.45371 -2.12573,-6.65471 -2.95073,-7.11332 -0.825,-0.45861 -6.3274,-3.12679 -12.22757,-5.9293 l -10.72756,-5.09546 1.72756,-2.37694 c 0.95017,-1.30732 2.00889,-2.39108 2.35273,-2.40837 0.34383,-0.0173 4.05633,1.53222 8.25,3.44333 4.19366,1.91112 7.62484,3.04477 7.62484,2.51922 0,-0.52554 -1.81644,-4.83292 -4.03654,-9.57196 -3.79956,-8.11059 -4.5165,-13.10636 -1.74846,-12.18368 0.85213,0.28405 15.57991,32.47107 17.27856,37.76167 0.26489,0.825 -0.54748,2.79022 -1.80525,4.36714 l -2.28686,2.86715 z"
         id="path848" />
    </g>
  </g>
</svg>
