<?xml version="1.0" encoding="UTF-8" standalone="no"?>
<svg
   xmlns:dc="http://purl.org/dc/elements/1.1/"
   xmlns:cc="http://creativecommons.org/ns#"
   xmlns:rdf="http://www.w3.org/1999/02/22-rdf-syntax-ns#"
   xmlns:svg="http://www.w3.org/2000/svg"
   xmlns="http://www.w3.org/2000/svg"
   xmlns:sodipodi="http://sodipodi.sourceforge.net/DTD/sodipodi-0.dtd"
   xmlns:inkscape="http://www.inkscape.org/namespaces/inkscape"
   inkscape:version="1.0 (4035a4fb49, 2020-05-01)"
   sodipodi:docname="OTIS_Logo_Black.svg"
   viewBox="0 0 240 77.333336"
   height="77.333336"
   width="240"
   id="svg2"
   version="1.1">
  <metadata
     id="metadata8">
    <rdf:RDF>
      <cc:Work
         rdf:about="">
        <dc:format>image/svg+xml</dc:format>
        <dc:type
           rdf:resource="http://purl.org/dc/dcmitype/StillImage" />
        <dc:title></dc:title>
      </cc:Work>
    </rdf:RDF>
  </metadata>
  <defs
     id="defs6" />
  <sodipodi:namedview
     inkscape:current-layer="g10"
     inkscape:window-maximized="0"
     inkscape:window-y="0"
     inkscape:window-x="0"
     inkscape:cy="38.666668"
     inkscape:cx="112.28726"
     inkscape:zoom="1.6299127"
     showgrid="false"
     id="namedview4"
     inkscape:window-height="726"
     inkscape:window-width="1366"
     inkscape:pageshadow="2"
     inkscape:pageopacity="0"
     guidetolerance="10"
     gridtolerance="10"
     objecttolerance="10"
     borderopacity="1"
     bordercolor="#666666"
     pagecolor="#ffffff" />
  <g
     id="g10"
     inkscape:label="Image"
     inkscape:groupmode="layer">
    <path
       id="path839"
       d="m 42,76.495623 c -3.666667,0.369176 -9.170827,0.1478 -12.231467,-0.491946 -3.06064,-0.639745 -7.40113,-2.112776 -9.645534,-3.273402 -2.244404,-1.160627 -6.26661,-4.296105 -8.938234,-6.96773 C 8.5131405,63.090921 5.0832397,58.151411 3.5627632,54.785857 1.5553099,50.342387 0.79826043,45.928203 0.79826043,38.666668 c 0,-7.261535 0.75704947,-11.675719 2.76450277,-16.119189 C 5.0832397,19.181925 8.5999963,14.155559 11.377778,11.377778 14.155559,8.5999966 19.181924,5.1072172 22.547479,3.6160463 26.749771,1.7541429 31.590425,0.89084187 38,0.86018466 c 6.877637,-0.032896 11.087401,0.74307364 16,2.94921884 3.666667,1.6466232 8.669244,4.9131261 11.116839,7.2588955 2.447594,2.345769 5.745936,6.665035 7.329649,9.598368 2.374076,4.397237 2.879476,7.556566 2.879476,18.000001 0,10.443435 -0.5054,13.602764 -2.879476,18.000001 -1.583713,2.933333 -4.882055,7.252599 -7.329649,9.598368 -2.447595,2.345769 -7.150172,5.456257 -10.450172,6.912196 -3.3,1.455939 -9,2.949215 -12.666667,3.31839 z M 38,59.968647 c 2.2,-0.01496 6.570263,-1.19377 9.711696,-2.619565 4.360379,-1.979036 6.325015,-3.943672 8.304051,-8.304051 1.425794,-3.141433 2.605532,-7.834563 2.621637,-10.429176 0.01611,-2.594615 -1.320717,-7.350219 -2.970717,-10.568011 -1.863912,-3.634959 -4.759371,-6.771517 -7.645864,-8.282521 -2.555226,-1.337594 -6.755226,-2.431057 -9.333334,-2.429917 -2.578108,0.0011 -6.775509,1.05114 -9.327558,2.333333 -2.552048,1.282194 -6.002048,4.369991 -7.666667,6.861773 -2.263333,3.388005 -3.026577,6.448506 -3.026577,12.136156 0,5.68765 0.763244,8.748151 3.026577,12.136156 1.664619,2.491782 5.114619,5.579579 7.666667,6.861773 C 31.91196,58.94679 35.8,59.983613 38,59.968647 Z m 172.93437,17.230754 c -1.24724,-0.07367 -4.66654,-0.695213 -7.59848,-1.381221 -2.93192,-0.686007 -7.56081,-2.792715 -10.28644,-4.681572 -2.72561,-1.888858 -6.17677,-5.956743 -7.66922,-9.039745 -1.49246,-3.083002 -2.71356,-6.512976 -2.71356,-7.622162 0,-1.330017 2.30464,-2.548678 6.76838,-3.579035 3.72262,-0.859282 7.32262,-1.562331 8,-1.562331 0.67739,0 1.23162,0.946153 1.23162,2.102564 0,1.156411 1.75384,3.856411 3.89744,6 3.03305,3.033059 5.10301,3.897436 9.33333,3.897436 3.65812,0 6.30801,-0.872117 8.10256,-2.666666 1.46667,-1.466667 2.66667,-3.266667 2.66667,-4 0,-0.733334 -1.11627,-2.449595 -2.48059,-3.813914 -1.39367,-1.393677 -6.37588,-3.215572 -11.37063,-4.158012 -4.88952,-0.922588 -10.80898,-2.970604 -13.15436,-4.55115 -2.34536,-1.580544 -5.62858,-4.898168 -7.29602,-7.372498 -2.02928,-3.011251 -3.03174,-6.467687 -3.03174,-10.453399 0,-3.535675 1.11215,-7.933405 2.73772,-10.825725 1.50574,-2.679109 4.7763,-6.2679632 7.26788,-7.9752309 2.4916,-1.7072678 7.08592,-3.6783626 10.20963,-4.3802104 3.12369,-0.70184786 8.10315,-0.87278502 11.06544,-0.37986035 2.96231,0.49292465 7.57553,2.00567355 10.25164,3.36166415 2.67609,1.3559906 6.05768,4.4340891 7.51464,6.8402185 1.45695,2.40613 3.01741,5.597399 3.46769,7.09171 0.71855,2.384557 -0.15996,2.979149 -7.1813,4.860424 -6.44319,1.726368 -8,1.800287 -8,0.379847 0,-0.970008 -1.58092,-3.0072 -3.51315,-4.527092 -1.93223,-1.519892 -5.43924,-2.76344 -7.79335,-2.76344 -2.45326,0 -5.22208,1.040757 -6.48685,2.438321 -1.21367,1.341076 -2.20665,3.719965 -2.20665,5.286421 0,1.566455 1.05,3.402031 2.33333,4.079055 1.28333,0.677026 5.93333,1.96758 10.33333,2.867902 4.4,0.90032 10.27354,2.791702 13.05231,4.203073 2.77876,1.41137 6.22703,4.491924 7.66279,6.845678 1.43576,2.353753 2.98385,6.255433 3.4402,8.670401 0.5215,2.759772 -0.004,6.575235 -1.416,10.271201 -1.23515,3.234193 -4.25948,7.648448 -6.72072,9.809455 -2.69324,2.364693 -7.19739,4.512949 -11.31242,5.395465 -3.76058,0.8065 -7.85788,1.406092 -9.10512,1.332428 z M 110.88889,76.000003 c -4.27778,0 -8.17778,-0.4 -8.66667,-0.88889 -0.48889,-0.488888 -0.88889,-13.364623 -0.88889,-28.612743 V 18.774514 l -10.999997,-0.387257 -11,-0.387256 V 10 2.0000001 H 110 140.66667 l 0.39696,8.3333339 0.39694,8.333333 h -11.39695 -11.39695 v 28.666668 28.666668 z m 51.73594,0 c -5.25654,0 -8.26614,-0.584483 -8.68943,-1.687536 -0.35616,-0.928146 -0.48732,-17.578146 -0.29148,-37.000002 L 154,2.0000001 162.33333,1.6030435 170.66667,1.206087 v 37.396958 37.396958 z"
       style="fill:#000000;stroke-width:1.33333" />
  </g>
</svg>
